<svg width="54" height="48" viewBox="0 0 54 48" fill="none" xmlns="http://www.w3.org/2000/svg">
<path d="M21.8688 6.6377H10.1372C7.79919 6.6377 5.87871 8.36269 5.87871 10.5002C5.79522 12.5627 7.63219 14.2877 9.92842 14.3627H21.994L21.8688 6.6377Z" fill="#073042"/>
<path d="M48.4632 40.9879H10.1371C7.75739 40.9879 5.87866 39.2629 5.87866 37.1254V10.4629C5.87866 12.6004 7.79914 14.3254 10.1371 14.3629H42.2425C42.2425 14.3629 48.5049 13.8754 48.5049 18.1129V40.9879H48.4632Z" fill="#4285F4"/>
<path d="M30.5942 27.3375C32.3059 26.175 32.6399 24 31.3456 22.5C30.6359 21.675 29.5504 21.15 28.3814 21.1125H28.5067C28.7154 21.075 28.9659 21.075 29.1747 21.1125V18.975C29.1747 18.7125 29.0494 18.4875 28.7989 18.375C28.4232 18.1875 27.9639 18.3 27.7552 18.6375C27.6717 18.75 27.6299 18.8625 27.6717 19.0125V21.1875C25.5842 21.4875 24.123 23.25 24.457 25.1625V25.2C24.624 26.1 25.1667 26.925 26.0017 27.45L18.946 41.025H23.5385L26.795 34.8C27.1707 34.05 28.1727 33.7125 29.0494 34.0875C29.3834 34.2375 29.6757 34.5 29.8427 34.8L33.2244 41.025H37.9003L30.5942 27.3375ZM28.2144 26.7375C26.8785 26.7375 25.8347 25.7625 25.8347 24.5625C25.8347 23.3625 26.9202 22.425 28.2562 22.4625C28.8824 22.4625 29.4252 22.6875 29.8844 23.0625C30.8447 23.8875 30.8447 25.2375 29.9262 26.1C29.5087 26.475 28.8824 26.7375 28.2144 26.7375Z" fill="#3870B2"/>
<path d="M19.322 8.5127H35.7713V11.2127H19.322V8.5127Z" fill="white"/>
<path d="M26.9622 22.4249C28.2564 22.4249 29.3419 23.3999 29.3002 24.5999C29.3002 25.7624 28.2147 26.7374 26.8787 26.6999C25.5845 26.6999 24.5407 25.7249 24.5407 24.5624C24.5407 23.9999 24.7912 23.4749 25.2505 23.0624C25.7097 22.6499 26.336 22.4249 26.9622 22.4249ZM27.8807 21.1874V18.9374C27.8807 18.6749 27.7554 18.4499 27.5049 18.3374C27.1292 18.1499 26.6699 18.2624 26.4612 18.5999C26.3777 18.7124 26.336 18.8249 26.3777 18.9749V21.1499C24.2902 21.4499 22.829 23.2124 23.163 25.1249V25.1624C23.33 26.0624 23.8727 26.8874 24.7077 27.4124L15.8151 44.5499C15.4811 45.1499 15.5228 45.8999 15.9821 46.4624C16.6501 47.3249 17.9443 47.5499 18.9045 46.9499C19.2385 46.7624 19.489 46.4624 19.656 46.1624L25.5845 34.7624C25.9602 34.0124 26.9622 33.6749 27.8389 34.0499C28.1729 34.1999 28.4652 34.4624 28.6322 34.7624L34.6859 46.0499C35.1868 46.9874 36.4393 47.3624 37.4831 46.9124C38.5268 46.4624 38.9443 45.3374 38.4433 44.3999L29.3002 27.3374C30.9701 26.1374 31.2624 23.9249 29.9264 22.4249C29.4254 21.8249 28.7157 21.4124 27.8807 21.1874Z" fill="#073042"/>
<path d="M33.3498 10.9125C32.7236 10.9125 32.2226 10.5 32.2226 9.9375C32.2226 9.675 32.3478 9.375 32.5566 9.1875C33.0158 8.8125 33.6838 8.8125 34.143 9.1875C34.3518 9.375 34.477 9.6375 34.477 9.9C34.4353 10.4625 33.976 10.875 33.3498 10.9125ZM20.992 10.875C20.3657 10.875 19.8647 10.425 19.8647 9.9C19.8647 9.6375 19.99 9.375 20.1987 9.1875C20.5745 8.775 21.2842 8.7 21.7434 9.0375H21.7852C22.2444 9.4125 22.2862 10.05 21.8687 10.4625L21.7434 10.6125C21.5347 10.8 21.2424 10.9125 20.9502 10.9125M33.6838 4.8375L35.8965 1.3875C36.0218 1.2 35.9383 0.975 35.7713 0.825C35.5625 0.75 35.3538 0.7875 35.2285 0.9375L32.9323 4.5C29.2584 3.0375 25.0834 3.0375 21.4512 4.5L19.1967 0.975C19.1132 0.8625 18.9462 0.75 18.7792 0.75C18.6122 0.75 18.4452 0.825 18.3617 0.975C18.2782 1.0875 18.2782 1.275 18.3617 1.3875L20.6162 4.8375C16.6918 6.75 14.145 10.35 13.7693 14.325H40.5725C40.2385 10.3125 37.65 6.75 33.7255 4.8375" fill="#3DDC84"/>
<path d="M44.5386 21.7873H42.7852C42.7017 21.8248 42.6182 21.8998 42.6182 22.0123V46.9498C42.6182 47.0623 42.7017 47.1373 42.8269 47.1373H44.6639C46.7931 47.1373 48.5048 45.5623 48.5048 43.6873V18.2998C48.5048 20.2123 46.7931 21.7498 44.6639 21.7498H44.5386V21.7873Z" fill="#073042"/>
</svg>
