<svg width="54" height="48" viewBox="0 0 54 48" fill="none" xmlns="http://www.w3.org/2000/svg">
<path d="M8.76956 16.1262C7.07745 16.1255 5.70598 17.3603 5.70557 18.8791L5.70765 30.4051C5.70738 30.7667 5.78647 31.1249 5.94041 31.4591C6.09436 31.7932 6.32012 32.0969 6.60481 32.3526C6.88949 32.6083 7.22751 32.8112 7.59953 32.9495C7.97155 33.0878 8.37027 33.1589 8.7729 33.1587C9.17548 33.1591 9.57419 33.0881 9.94619 32.9499C10.3182 32.8117 10.6562 32.6088 10.9408 32.3531C11.2253 32.0973 11.451 31.7936 11.6047 31.4594C11.7584 31.1252 11.8371 30.7671 11.8365 30.4055V18.8776C11.8356 18.1475 11.5121 17.4477 10.937 16.9317C10.3619 16.4158 9.58234 16.1261 8.76956 16.1262ZM33.4823 5.77545L35.6212 2.26733C35.6757 2.17834 35.6886 2.07357 35.6573 1.976C35.6259 1.87842 35.5527 1.79601 35.4538 1.74683C35.3546 1.69868 35.2383 1.6877 35.1302 1.7163C35.0221 1.74489 34.931 1.81073 34.8768 1.89945L32.7162 5.44433C30.8985 4.71758 28.864 4.31033 26.7114 4.3122C24.5647 4.31033 22.531 4.71645 20.7208 5.43908L18.5577 1.9032C18.5313 1.85907 18.4954 1.82008 18.4521 1.78849C18.4088 1.7569 18.359 1.73334 18.3055 1.71918C18.252 1.70502 18.1959 1.70054 18.1404 1.70599C18.085 1.71145 18.0313 1.72673 17.9824 1.75095C17.9331 1.77462 17.8896 1.80688 17.8543 1.84585C17.8191 1.88482 17.7928 1.92971 17.7771 1.97789C17.7614 2.02608 17.7566 2.0766 17.7629 2.12649C17.7691 2.17638 17.7865 2.22464 17.8138 2.26845L19.9534 5.77433C15.7492 7.7217 12.9086 11.4305 12.9111 15.6886L40.5151 15.6856C40.5159 11.429 37.6803 7.7277 33.4823 5.77545ZM20.4331 11.1968C20.1261 11.1967 19.8318 11.087 19.6148 10.8919C19.3979 10.6968 19.2761 10.4323 19.2762 10.1566C19.2764 9.88084 19.3985 9.61645 19.6157 9.42157C19.8329 9.2267 20.1274 9.11731 20.4344 9.11746C20.7414 9.11795 21.0357 9.22769 21.2528 9.42266C21.47 9.61763 21.5923 9.88193 21.5929 10.1577C21.5924 10.4336 21.4699 10.698 21.2524 10.8929C21.035 11.0877 20.7403 11.197 20.4331 11.1968ZM33.0022 11.195C32.8503 11.1951 32.6997 11.1682 32.5593 11.1161C32.4189 11.0639 32.2913 10.9874 32.1838 10.8908C32.0763 10.7943 31.9911 10.6798 31.9329 10.5536C31.8748 10.4275 31.8449 10.2923 31.8449 10.1558C31.8466 9.88032 31.969 9.61648 32.1857 9.42149C32.4024 9.2265 32.6959 9.11605 33.0026 9.11408C33.3091 9.11635 33.6022 9.22701 33.8185 9.42209C34.0347 9.61716 34.1567 9.88093 34.1579 10.1562C34.158 10.2926 34.1282 10.4277 34.0702 10.5537C34.0122 10.6798 33.9271 10.7943 33.8198 10.8908C33.7125 10.9873 33.585 11.0638 33.4447 11.116C33.3044 11.1682 33.1541 11.195 33.0022 11.195ZM13.0238 16.6463L13.0284 34.5095C13.0279 34.8953 13.1122 35.2774 13.2763 35.6339C13.4405 35.9904 13.6813 36.3143 13.9851 36.5871C14.2888 36.8599 14.6495 37.0762 15.0464 37.2236C15.4433 37.371 15.8687 37.4466 16.2983 37.4461L18.5248 37.4468L18.5273 43.5458C18.5268 45.0646 19.9012 46.2991 21.5896 46.2991C23.2829 46.2991 24.6548 45.0635 24.6553 43.544L24.6536 37.4465L28.7905 37.4453L28.7922 43.544C28.7922 45.0616 30.167 46.2987 31.8558 46.2957C33.5491 46.2968 34.9219 45.0612 34.9215 43.5417L34.9194 37.4446L37.1538 37.4431C37.5834 37.4431 38.0087 37.3672 38.4056 37.2196C38.8025 37.072 39.1631 36.8556 39.4669 36.5828C39.7707 36.31 40.0117 35.9861 40.1761 35.6297C40.3406 35.2732 40.4252 34.8912 40.4253 34.5053L40.4215 16.6422L13.0238 16.6463ZM47.7319 18.875C47.7319 18.5135 47.6527 18.1555 47.4987 17.8215C47.3447 17.4876 47.1189 17.1841 46.8343 16.9285C46.5497 16.673 46.2118 16.4703 45.8399 16.332C45.468 16.1938 45.0695 16.1227 44.667 16.1228C42.9749 16.1213 41.6039 17.3555 41.6039 18.8761L41.6064 30.4028C41.6061 30.7643 41.6852 31.1223 41.8391 31.4563C41.9929 31.7903 42.2186 32.0938 42.5032 32.3494C42.7878 32.605 43.1256 32.8077 43.4975 32.946C43.8694 33.0842 44.2679 33.1552 44.6704 33.155C45.0729 33.155 45.4715 33.0838 45.8433 32.9454C46.2152 32.807 46.553 32.6042 46.8375 32.3484C47.122 32.0927 47.3477 31.7891 47.5015 31.455C47.6553 31.1209 47.7343 30.7629 47.734 30.4013L47.7319 18.875Z" fill="#A4C439"/>
</svg>
