<svg width="55" height="48" viewBox="0 0 55 48" fill="none" xmlns="http://www.w3.org/2000/svg">
<path d="M12.0225 0.769043C9.02617 0.769043 6.80969 3.12554 6.90864 5.68117C7.00383 8.13592 6.88025 11.3159 5.9889 13.9087C5.09546 16.5097 3.58413 18.1533 1.11548 18.3648V20.7599C3.58413 20.971 5.09546 22.615 5.9889 25.216C6.88025 27.8088 7.00341 30.9888 6.90864 33.4435C6.80928 35.9992 9.02617 38.3553 12.0225 38.3553H42.7251C45.7215 38.3553 47.938 35.9988 47.839 33.4435C47.7438 30.9888 47.8674 27.8088 48.7583 25.216C49.6518 22.6154 51.1594 20.9714 53.628 20.7599V18.3648C51.1594 18.1537 49.6522 16.5097 48.7583 13.9087C47.8674 11.3159 47.7438 8.13592 47.839 5.68117C47.938 3.12554 45.7215 0.769043 42.7247 0.769043H12.0225ZM36.2848 23.9013C36.2848 27.4203 33.3615 29.5537 28.5107 29.5537H19.5671C19.5127 29.5537 19.4606 29.5343 19.4221 29.4997C19.3837 29.4652 19.3621 29.4184 19.3621 29.3695V9.74729C19.362 9.72308 19.3673 9.6991 19.3776 9.67672C19.3879 9.65433 19.403 9.63399 19.422 9.61685C19.441 9.59972 19.4636 9.58612 19.4885 9.57684C19.5134 9.56757 19.5401 9.56279 19.5671 9.56279H28.4635C32.5086 9.56279 35.163 11.53 35.163 14.5503C35.163 16.6702 33.3774 18.5677 31.1021 18.9003V19.0113C34.199 19.3162 36.2848 21.2418 36.2848 23.9013ZM27.6101 12.0982H22.9016V18.0689H26.8678C29.9331 18.0689 31.6235 16.9608 31.6235 14.9797C31.6235 13.1234 30.1702 12.0982 27.6101 12.0982ZM22.9016 20.4382V27.0187H27.7842C30.976 27.0187 32.6668 25.8689 32.6668 23.7074C32.6668 21.5463 30.9288 20.4382 27.5788 20.4382H22.9016Z" fill="#7952B3"/>
<path d="M5.41064 45.5365V38.8848H7.51774C8.1579 38.8848 8.66571 39.0255 9.04118 39.307C9.41637 39.5883 9.60396 39.9546 9.60396 40.4061C9.60396 40.7836 9.49041 41.1115 9.26329 41.3898C9.03589 41.668 8.72249 41.8659 8.32309 41.9834V42.0021C8.82241 42.0546 9.22182 42.2246 9.5213 42.5121C9.82078 42.7966 9.97053 43.1678 9.97053 43.6255C9.97053 44.1945 9.74341 44.6553 9.28917 45.0078C8.83466 45.3603 8.2613 45.5365 7.56909 45.5365H5.41064ZM6.2782 39.5898V41.7374H7.16663C7.64174 41.7374 8.01526 41.6354 8.28719 41.4314C8.55911 41.2239 8.69508 40.9331 8.69508 40.5591C8.69508 39.9129 8.22164 39.5898 7.27476 39.5898H6.2782ZM6.2782 42.4379V44.8315H7.45554C7.96516 44.8315 8.35941 44.7233 8.6383 44.5068C8.92053 44.2903 9.06164 43.9934 9.06164 43.6161C9.06164 42.8306 8.46601 42.4379 7.27476 42.4379H6.2782ZM13.5702 45.649C12.7886 45.649 12.1638 45.4279 11.6956 44.9856C11.2308 44.5404 10.9984 43.9513 10.9984 43.2183C10.9984 42.4205 11.2411 41.7974 11.7265 41.3489C12.2119 40.9006 12.8678 40.6765 13.6942 40.6765C14.4824 40.6765 15.0969 40.8945 15.5378 41.3305C15.9818 41.7665 16.2037 42.371 16.2037 43.144C16.2037 43.9018 15.9645 44.5095 15.4861 44.9673C15.0109 45.4218 14.3723 45.649 13.5702 45.649ZM13.632 41.3166C13.0881 41.3166 12.6578 41.4836 12.3411 41.8176C12.0243 42.1484 11.866 42.606 11.866 43.1905C11.866 43.7535 12.026 44.1973 12.3461 44.5218C12.6662 44.8468 13.0948 45.0093 13.632 45.0093C14.1794 45.0093 14.5996 44.8499 14.8924 44.5311C15.1882 44.2126 15.3362 43.7596 15.3362 43.1721C15.3362 42.5784 15.1882 42.1206 14.8924 41.7989C14.5996 41.4774 14.1794 41.3166 13.632 41.3166ZM19.7675 45.649C18.9859 45.649 18.3611 45.4279 17.8929 44.9856C17.4281 44.5404 17.1957 43.9513 17.1957 43.2183C17.1957 42.4205 17.4384 41.7974 17.9238 41.3489C18.4092 40.9006 19.0651 40.6765 19.8915 40.6765C20.6797 40.6765 21.2942 40.8945 21.7351 41.3305C22.1793 41.7665 22.4014 42.371 22.4014 43.144C22.4014 43.9018 22.1621 44.5095 21.6833 44.9673C21.2082 45.4218 20.5696 45.649 19.7675 45.649ZM19.8293 41.3166C19.2854 41.3166 18.8551 41.4836 18.5384 41.8176C18.2216 42.1484 18.0632 42.606 18.0632 43.1905C18.0632 43.7535 18.2233 44.1973 18.5434 44.5218C18.8634 44.8468 19.2921 45.0093 19.8293 45.0093C20.3767 45.0093 20.7969 44.8499 21.0897 44.5311C21.3855 44.2126 21.5335 43.7596 21.5335 43.1721C21.5335 42.5784 21.3855 42.1206 21.0897 41.7989C20.7969 41.4774 20.3767 41.3166 19.8293 41.3166ZM26.2073 45.4915C26.0078 45.5905 25.7443 45.64 25.417 45.64C24.491 45.64 24.028 45.1761 24.028 44.2484V41.4374H23.1191V40.7879H24.028V39.6284L24.8751 39.3824V40.7879H26.2073V41.4374H24.8751V44.1138C24.8751 44.4323 24.9354 44.6596 25.0559 44.7959C25.1761 44.9319 25.3757 44.9999 25.6546 44.9999C25.868 44.9999 26.0523 44.9474 26.2073 44.8424V45.4915ZM27.0181 45.364V44.5476C27.4793 44.8536 27.9871 45.0066 28.5415 45.0066C29.2852 45.0066 29.6571 44.7841 29.6571 44.3391C29.6571 44.2121 29.6244 44.1054 29.559 44.0189C29.4969 43.9291 29.4108 43.8503 29.3005 43.7823C29.1939 43.7143 29.0666 43.654 28.9185 43.6015C28.7738 43.5458 28.6171 43.4885 28.4484 43.4298C28.2146 43.3463 28.0081 43.2628 27.8289 43.1793C27.6535 43.0928 27.5055 42.9969 27.3847 42.8916C27.2678 42.7834 27.1783 42.6613 27.1162 42.5253C27.0578 42.3893 27.0285 42.23 27.0285 42.0475C27.0285 41.825 27.0853 41.6286 27.1989 41.4584C27.3124 41.2851 27.4638 41.1414 27.6531 41.0271C27.8424 40.9096 28.0577 40.8214 28.299 40.7624C28.5434 40.7036 28.7947 40.6743 29.053 40.6743C29.5108 40.6743 29.9205 40.7455 30.2821 40.888V41.6579C29.893 41.4289 29.4453 41.3144 28.939 41.3144C28.7806 41.3144 28.6378 41.3314 28.5106 41.3654C28.3832 41.3964 28.273 41.4414 28.18 41.5004C28.0904 41.5589 28.0198 41.6299 27.9683 41.7134C27.9202 41.7939 27.8961 41.8836 27.8961 41.9826C27.8961 42.1061 27.9202 42.2096 27.9683 42.2931C28.0198 42.3766 28.0938 42.4509 28.1904 42.5159C28.2867 42.5809 28.4038 42.6396 28.5415 42.6921C28.6793 42.7446 28.836 42.8019 29.0116 42.8639C29.2454 42.9441 29.4554 43.0276 29.6416 43.1144C29.8276 43.1979 29.9859 43.2938 30.1167 43.402C30.2476 43.507 30.3473 43.6291 30.4161 43.7684C30.4885 43.9074 30.5246 44.0728 30.5246 44.2645C30.5246 44.4995 30.4662 44.7036 30.3493 44.8769C30.2355 45.0501 30.0821 45.1939 29.8892 45.3081C29.6966 45.4226 29.4746 45.5078 29.2233 45.5635C28.972 45.6193 28.7085 45.6471 28.433 45.6471C27.8891 45.6471 27.4174 45.5528 27.0177 45.364H27.0181ZM34.2788 45.4915C34.0792 45.5905 33.8158 45.64 33.4884 45.64C32.5624 45.64 32.0994 45.1761 32.0994 44.2484V41.4374H31.1905V40.7879H32.0994V39.6284L32.9465 39.3824V40.7879H34.2788V41.4374H32.9465V44.1138C32.9465 44.4323 33.0068 44.6596 33.1273 44.7959C33.2475 44.9319 33.4471 44.9999 33.726 44.9999C33.9395 44.9999 34.1237 44.9474 34.2788 44.8424V45.4915ZM38.1677 41.5578C38.0196 41.4558 37.8062 41.4048 37.5273 41.4048C37.1657 41.4048 36.8628 41.5578 36.6184 41.8638C36.3774 42.17 36.2568 42.5875 36.2568 43.1163V45.5376H35.4102V40.7879H36.2568V41.7666H36.2777C36.3982 41.4326 36.5824 41.1729 36.8301 40.9874C37.0778 40.7986 37.355 40.7043 37.6617 40.7043C37.8819 40.7043 38.0505 40.726 38.1677 40.7695V41.5578ZM42.8733 45.5365H42.0262V44.794H42.0053C41.6371 45.3633 41.0951 45.6479 40.3792 45.6479C39.8523 45.6479 39.439 45.5226 39.1392 45.2721C38.8434 45.0216 38.6954 44.6891 38.6954 44.2746C38.6954 43.3871 39.2771 42.8709 40.4406 42.7259L42.0262 42.526C42.0262 41.719 41.663 41.3155 40.9365 41.3155C40.2997 41.3155 39.7248 41.5103 39.2119 41.8998V41.1205C39.7318 40.8238 40.3309 40.6754 41.0092 40.6754C42.2519 40.6754 42.8733 41.266 42.8733 42.4473V45.5365ZM42.0262 43.1339L40.7508 43.2914C40.3583 43.3409 40.0622 43.429 39.8623 43.5558C39.6628 43.6795 39.563 43.9006 39.563 44.2191C39.563 44.4511 39.6543 44.6414 39.8369 44.7899C40.0228 44.9349 40.269 45.0074 40.5754 45.0074C40.9954 45.0074 41.3414 44.8761 41.6133 44.6136C41.8889 44.3476 42.0266 44.012 42.0266 43.6068L42.0262 43.1339ZM45.3365 44.8503H45.3157V47.7216H44.469V40.7868H45.3161V41.6215H45.3365C45.7532 40.9908 46.3626 40.6754 47.1647 40.6754C47.8464 40.6754 48.3783 40.8888 48.7604 41.3155C49.1426 41.739 49.3336 42.308 49.3336 43.0225C49.3336 43.8173 49.1185 44.4543 48.6882 44.9335C48.2579 45.4098 47.6692 45.6479 46.9222 45.6479C46.2369 45.6479 45.7084 45.3819 45.3365 44.8499V44.8503ZM45.3157 42.9344V43.5981C45.3157 43.9906 45.4569 44.3245 45.7394 44.5998C46.0253 44.872 46.3867 45.0081 46.8236 45.0081C47.3369 45.0081 47.7381 44.8319 48.0273 44.4794C48.3195 44.1269 48.4657 43.6366 48.4657 43.0086C48.4657 42.4799 48.3298 42.0655 48.0582 41.7655C47.7863 41.4655 47.4179 41.3155 46.9531 41.3155C46.4604 41.3155 46.0645 41.4701 45.7653 41.7794C45.4655 42.0856 45.3157 42.4706 45.3157 42.9344Z" fill="#7952B3"/>
</svg>
