<svg width="54" height="48" viewBox="0 0 54 48" fill="none" xmlns="http://www.w3.org/2000/svg">
<path d="M8.29369 42.796L4.09619 0.506836H50.221L46.0194 42.7896L27.1306 47.4932L8.29369 42.796Z" fill="#1572B6"/>
<path d="M27.1589 43.8986L42.4221 40.0976L46.013 3.96484H27.1589V43.8986Z" fill="#33A9DC"/>
<path d="M27.1589 19.2858H34.7999L35.3276 13.9747H27.1589V8.78809H41.6385L41.4999 10.1797L40.0804 24.4725H27.1589V19.2858Z" fill="white"/>
<path d="M27.1933 32.7559L27.1679 32.7627L20.7372 31.203L20.3259 27.0664H14.5303L15.339 35.2103L27.167 38.1589L27.1933 38.1522V32.7559Z" fill="#EBEBEB"/>
<path d="M34.3092 24.2529L33.6136 31.1987L27.1733 32.7602V38.1564L39.011 35.2097L39.0978 34.3333L40.1023 24.2529H34.3092Z" fill="white"/>
<path d="M27.1786 8.78809V13.9747H13.231L13.1153 12.8092L12.8523 10.1797L12.7141 8.78809H27.1786ZM27.159 19.2866V24.4732H20.8093L20.6937 23.3077L20.4303 20.6782L20.2925 19.2866H27.159Z" fill="#EBEBEB"/>
</svg>
