<svg width="55" height="48" viewBox="0 0 55 48" fill="none" xmlns="http://www.w3.org/2000/svg">
<path d="M15.6537 13.0871L12.1885 9.97461V32.3621L12.2302 33.4121C12.2302 33.8996 12.3137 34.4621 12.5225 35.0246L39.9102 43.6871L46.7153 40.9871L15.6537 13.0871Z" fill="#00C4B3"/>
<path d="M46.7153 40.9879L39.9101 43.6879L12.606 35.0254C13.1487 36.8254 14.2759 38.8129 15.5284 39.9754L24.4211 47.9254L44.2938 47.9629L46.7153 40.9879Z" fill="#22D3C5"/>
<path d="M1.66775 24.4125C0.791011 25.2375 1.25026 27 2.62799 28.3125L8.76517 33.8625L12.6061 35.1C12.4809 34.5375 12.3139 33.975 12.3139 33.4875L12.2721 32.4375L12.1886 10.0125M46.7155 40.9875L49.7214 34.8375L40.119 10.2375C39.4928 10.125 38.8666 10.0125 38.3238 9.975L37.1131 9.9375L12.2304 9.975" fill="#0075C9"/>
<path d="M40.0356 10.2373C40.1191 10.2373 40.1191 10.2373 40.0356 10.2373C40.1191 10.2373 40.1191 10.2373 40.0356 10.2373ZM46.7156 40.9873L54.1052 38.8123V20.5498L45.5883 12.8623C44.3358 11.7373 42.1231 10.6873 40.0774 10.2373L49.7215 34.8373" fill="#00A8E1"/>
<path d="M38.7414 6.825L32.5625 1.3125C31.143 0.0374978 29.2225 -0.337502 28.2205 0.449998L12.1887 9.975H37.0297L38.2404 10.0125C38.7832 10.0125 39.4094 10.0875 40.0356 10.275L38.7414 6.825Z" fill="#00C4B3"/>
</svg>
