<svg width="54" height="48" viewBox="0 0 54 48" fill="none" xmlns="http://www.w3.org/2000/svg">
<path d="M5.31999 43.3576H4.00488V34.2076H9.95419V35.3363H5.31999V38.3438H9.51164V39.4426H5.32834V43.3576H5.31999ZM12.217 35.5275C12.0375 35.6888 11.8162 35.7675 11.5615 35.7675C11.3069 35.7675 11.0814 35.6888 10.9061 35.5275C10.7266 35.3663 10.6389 35.1675 10.6389 34.9388C10.6389 34.71 10.7266 34.5075 10.9061 34.35C11.0856 34.1888 11.3069 34.1101 11.5615 34.1101C11.8162 34.1101 12.0417 34.1888 12.217 34.35C12.3924 34.5113 12.4842 34.71 12.4842 34.9388C12.4842 35.1675 12.3924 35.355 12.217 35.5275ZM12.217 43.3576H10.9061V37.0951H12.217V43.3576ZM14.9516 43.3576H13.6407V37.0951H14.8973V38.1151H14.9516C15.0852 37.7738 15.3524 37.4963 15.7741 37.2751C16.1874 37.0538 16.5882 36.945 16.9765 36.945C17.3647 36.945 17.6904 36.9938 17.9534 37.0951L17.4524 38.1938C17.2854 38.1338 17.0516 38.1038 16.751 38.1038C16.2709 38.1038 15.8617 38.2725 15.4943 38.6138C15.127 38.9551 14.9474 39.3938 14.9474 39.9338V43.3576H14.9516ZM21.1138 43.5676C20.0576 43.5676 19.2017 43.2488 18.5462 42.6188C17.8908 41.9888 17.5568 41.19 17.5568 40.23C17.5568 39.3225 17.8782 38.5313 18.5128 37.8713C19.16 37.2113 19.9699 36.8813 20.9719 36.8813C22.0073 36.8813 22.8297 37.1813 23.4518 37.7888C24.0739 38.4 24.387 39.2063 24.387 40.215L24.3745 40.4363H18.8677C18.9011 41.0663 19.1474 41.565 19.5691 41.9363C20.0033 42.3075 20.5043 42.4875 21.0804 42.4875C22.0156 42.4875 22.6586 42.1275 22.9926 41.4075L24.1615 41.8463C23.9403 42.3375 23.5604 42.735 23.0385 43.065C22.5166 43.3988 21.8695 43.5676 21.1138 43.5676ZM22.9967 39.4725C22.9633 39.1125 22.7838 38.7713 22.4498 38.4525C22.1158 38.1338 21.6148 37.9613 20.9468 37.9613C20.4584 37.9613 20.045 38.1 19.6902 38.37C19.3353 38.64 19.089 39.0113 18.9554 39.4688L22.9967 39.4725ZM28.992 43.5676C28.4576 43.5676 27.9816 43.4663 27.5558 43.2563C27.1341 43.0575 26.821 42.7951 26.6122 42.4875H26.558V43.3576H25.3013V34.2076H26.6122V37.0951L26.558 37.965H26.6122C26.8252 37.6538 27.1341 37.4063 27.5558 37.1963C27.9774 36.9976 28.4576 36.8851 28.992 36.8851C29.8937 36.8851 30.6703 37.2038 31.3299 37.8451C31.9854 38.4863 32.3069 39.2738 32.3069 40.2225C32.3069 41.1713 31.9854 41.9625 31.3299 42.6C30.6703 43.2488 29.8937 43.5676 28.992 43.5676ZM28.7665 42.4913C29.3802 42.4913 29.9021 42.2813 30.3363 41.8726C30.7705 41.4638 30.9918 40.9125 30.9918 40.2338C30.9918 39.555 30.7705 39.0038 30.3363 38.5951C29.9021 38.1863 29.3802 37.9763 28.7665 37.9763C28.1528 37.9763 27.6226 38.175 27.1967 38.5876C26.7751 38.9963 26.5496 39.5476 26.5496 40.2375C26.5496 40.9276 26.7625 41.475 27.1967 41.8875C27.6351 42.2888 28.157 42.4913 28.7665 42.4913ZM35.5633 43.5676C34.816 43.5676 34.2065 43.3763 33.7055 42.9863C33.2045 42.6075 32.9582 42.0975 32.9582 41.4675C32.9582 40.7888 33.2462 40.2488 33.8349 39.8588C34.4236 39.4688 35.1458 39.2775 36.0142 39.2775C36.7824 39.2775 37.417 39.4088 37.9055 39.6563V39.4763C37.9055 39.015 37.726 38.6475 37.3836 38.3663C37.0287 38.085 36.6029 37.9463 36.0936 37.9463C35.7136 37.9463 35.3713 38.0251 35.0582 38.1863C34.745 38.3475 34.5363 38.5651 34.4236 38.8576L33.2212 38.3963C33.3882 38.0175 33.7013 37.6763 34.1772 37.3576C34.6574 37.0388 35.2794 36.8775 36.056 36.8775C36.9452 36.8775 37.6926 37.1063 38.2812 37.5788C38.8699 38.0476 39.158 38.7076 39.158 39.5588V43.3538H37.9013V42.4838H37.847C37.3335 43.2076 36.5653 43.5676 35.5633 43.5676ZM35.7763 42.4913C36.3232 42.4913 36.8116 42.3113 37.2458 41.9513C37.6926 41.5913 37.9138 41.1638 37.9138 40.6613C37.5464 40.3913 36.9912 40.2525 36.2439 40.2525C35.6093 40.2525 35.1333 40.3726 34.8077 40.6238C34.4862 40.875 34.3192 41.1638 34.3192 41.4938C34.3192 41.805 34.4653 42.045 34.7659 42.225C35.0623 42.4013 35.3963 42.4913 35.7763 42.4913ZM42.8069 43.5676C42.0262 43.5676 41.3832 43.3988 40.8822 43.0575C40.3867 42.7325 40.0021 42.2896 39.7717 41.7788L40.9407 41.34C41.3081 42.1275 41.9427 42.5175 42.8319 42.5175C43.2452 42.5175 43.5792 42.4388 43.8339 42.2775C44.0886 42.1163 44.2222 41.8988 44.2222 41.6363C44.2222 41.2276 43.9007 40.9463 43.2661 40.8075L41.8508 40.5C41.4041 40.3988 40.9824 40.2 40.5816 39.9188C40.1808 39.63 39.9804 39.2476 39.9804 38.7601C39.9804 38.2088 40.2602 37.7626 40.8029 37.41C41.3498 37.0613 41.9928 36.8888 42.7484 36.8888C43.3621 36.8888 43.9174 37.0201 44.3934 37.2675C44.8818 37.5188 45.2283 37.8788 45.4287 38.3475L44.2932 38.7675C44.0385 38.2163 43.5041 37.9388 42.7025 37.9388C42.3142 37.9388 41.9886 38.0101 41.7256 38.16C41.4584 38.3101 41.3248 38.5013 41.3248 38.7488C41.3248 39.1088 41.6379 39.3488 42.2474 39.48L43.6252 39.7688C44.2806 39.9076 44.7607 40.14 45.0822 40.47C45.3953 40.8 45.5498 41.1788 45.5498 41.5988C45.5498 42.1576 45.2951 42.6263 44.7816 43.0088C44.2765 43.3876 43.6168 43.5676 42.8069 43.5676ZM49.6496 43.5676C48.5934 43.5676 47.7375 43.2488 47.082 42.6188C46.4266 41.9888 46.0926 41.19 46.0926 40.23C46.0926 39.3225 46.414 38.5313 47.0486 37.8713C47.6957 37.2113 48.5057 36.8813 49.5077 36.8813C50.5431 36.8813 51.3655 37.1813 51.9876 37.7888C52.6097 38.4 52.9228 39.2063 52.9228 40.215L52.9103 40.4363H47.4035C47.4369 41.0663 47.6832 41.565 48.1049 41.9363C48.5391 42.3075 49.0401 42.4875 49.6162 42.4875C50.5514 42.4875 51.1943 42.1275 51.5283 41.4075L52.6973 41.8463C52.4761 42.3375 52.0961 42.735 51.5743 43.065C51.0482 43.3988 50.4053 43.5676 49.6496 43.5676ZM51.5283 39.4725C51.4949 39.1125 51.3154 38.7713 50.9814 38.4525C50.6474 38.1338 50.1464 37.9613 49.4784 37.9613C48.99 37.9613 48.5767 38.1 48.2218 38.37C47.8669 38.64 47.6206 39.0113 47.487 39.4688L51.5283 39.4725ZM16.9472 22.2826L20.1578 3.80255C20.2705 3.17255 21.2099 3.02255 21.5397 3.5888L24.9882 9.39005L16.9472 22.2826ZM39.7717 26.7713L36.7073 9.75005C36.6154 9.2213 35.8765 9.0038 35.4506 9.3863L16.154 26.7713L26.8377 32.1563C27.5015 32.4863 28.3323 32.4863 28.9961 32.1563L39.7717 26.7713ZM31.0961 11.9251L28.6246 7.6988C28.349 7.2188 27.5934 7.2188 27.3136 7.6988L16.4462 25.0988L31.0961 11.9251Z" fill="#F58220"/>
</svg>
