<?xml version="1.0" encoding="UTF-8"?>
<svg version="1.1" xmlns="http://www.w3.org/2000/svg" width="64" height="64">
<path d="M0 0 C1.9375 0.11328125 1.9375 0.11328125 4 1 C5.0625 3.29296875 5.0625 3.29296875 6 6.1875 C8.62640097 12.5909157 12.36212485 14.42407035 18.55078125 17.07421875 C19.76314453 17.53248047 19.76314453 17.53248047 21 18 C20.82421875 19.875 20.82421875 19.875 20 22 C17.70703125 23.0625 17.70703125 23.0625 14.8125 24 C8.4090843 26.62640097 6.57592965 30.36212485 3.92578125 36.55078125 C3.46751953 37.76314453 3.46751953 37.76314453 3 39 C1.1640625 38.828125 1.1640625 38.828125 -1 38 C-2.3515625 35.671875 -2.3515625 35.671875 -3.625 32.75 C-6.43191879 27.17224108 -9.140753 25.23353365 -14.92578125 23.09765625 C-17 22 -17 22 -17.79296875 19.87109375 C-17.86128906 19.25363281 -17.92960937 18.63617187 -18 18 C-15.19432248 16.29958938 -12.50428921 14.77870054 -9.5 13.4375 C-4.64202474 10.74333905 -3.14588796 5.86815078 -1 1 C-0.67 0.67 -0.34 0.34 0 0 Z " fill="#FEA602" transform="translate(39,11)"/>
<path d="M0 0 C1.0979187 -0.00287018 1.0979187 -0.00287018 2.21801758 -0.00579834 C3.75765326 -0.00715264 5.29730066 -0.00350921 6.83691406 0.00488281 C9.18060186 0.01559348 11.52352327 0.00496219 13.8671875 -0.0078125 C15.36979334 -0.00649077 16.87239871 -0.0039281 18.375 0 C19.06891846 -0.00404846 19.76283691 -0.00809692 20.4777832 -0.01226807 C24.74672716 0.02845421 28.21585004 0.7106283 32.1875 2.265625 C32.1875 2.925625 32.1875 3.585625 32.1875 4.265625 C27.51865801 6.09358919 23.33515932 6.56018858 18.375 6.53125 C17.2770813 6.53412018 17.2770813 6.53412018 16.15698242 6.53704834 C14.61734674 6.53840264 13.07769934 6.53475921 11.53808594 6.52636719 C9.19439814 6.51565652 6.85147673 6.52628781 4.5078125 6.5390625 C3.00520666 6.53774077 1.50260129 6.5351781 0 6.53125 C-0.69391846 6.53529846 -1.38783691 6.53934692 -2.1027832 6.54351807 C-6.37172716 6.50279579 -9.84085004 5.8206217 -13.8125 4.265625 C-13.8125 3.605625 -13.8125 2.945625 -13.8125 2.265625 C-9.14365801 0.43766081 -4.96015932 -0.02893858 0 0 Z " fill="#000000" transform="translate(22.8125,57.734375)"/>
<path d="M0 0 C3 2 3 2 3.8125 4.4375 C5.4311957 7.93047494 7.5314942 8.5673563 11 10 C11 10.99 11 11.98 11 13 C10.071875 13.37125 9.14375 13.7425 8.1875 14.125 C4.4739697 16.30942959 3.57312496 18.06718759 2 22 C0.125 21.8125 0.125 21.8125 -2 21 C-2.433125 19.824375 -2.433125 19.824375 -2.875 18.625 C-4.41322558 15.03580697 -6.48972962 14.44989429 -10 13 C-10 12.01 -10 11.02 -10 10 C-8.63875 9.1028125 -8.63875 9.1028125 -7.25 8.1875 C-3.56219685 5.7053248 -2.22188837 3.76011877 0 0 Z " fill="#FFA501" transform="translate(17,33)"/>
<path d="M0 0 C3 2 3 2 3.8125 4.4375 C5.4311957 7.93047494 7.5314942 8.5673563 11 10 C11 10.99 11 11.98 11 13 C10.071875 13.37125 9.14375 13.7425 8.1875 14.125 C4.4739697 16.30942959 3.57312496 18.06718759 2 22 C0.125 21.8125 0.125 21.8125 -2 21 C-2.433125 19.824375 -2.433125 19.824375 -2.875 18.625 C-4.41322558 15.03580697 -6.48972962 14.44989429 -10 13 C-10 12.01 -10 11.02 -10 10 C-8.63875 9.1028125 -8.63875 9.1028125 -7.25 8.1875 C-3.56219685 5.7053248 -2.22188837 3.76011877 0 0 Z " fill="#FFA501" transform="translate(17,6)"/>
<path d="M0 0 C2.0625 0.4375 2.0625 0.4375 4 1 C3.51603839 8.01744341 1.97918246 12.02081754 -3.125 17.125 C-7.1608664 19.75708678 -11.48783371 21.35284027 -16 23 C-16.66 22.34 -17.32 21.68 -18 21 C-17.953125 19.0390625 -17.953125 19.0390625 -17 17 C-14.671875 15.6484375 -14.671875 15.6484375 -11.75 14.375 C-5.41887623 11.17654916 -3.49278109 7.4255668 -1 1 C-0.67 0.67 -0.34 0.34 0 0 Z " fill="#FFBF49" transform="translate(39,11)"/>
<path d="M0 0 C-0.17578125 1.875 -0.17578125 1.875 -1 4 C-3.29296875 5.0625 -3.29296875 5.0625 -6.1875 6 C-12.5909157 8.62640097 -14.42407035 12.36212485 -17.07421875 18.55078125 C-17.53248047 19.76314453 -17.53248047 19.76314453 -18 21 C-19.9375 20.625 -19.9375 20.625 -22 20 C-22.33 19.34 -22.66 18.68 -23 18 C-20.93521936 11.92122416 -18.47367247 5.86758748 -13.2578125 1.9296875 C-8.43120422 -0.35935437 -5.25203044 -1.4504705 0 0 Z " fill="#DA8E01" transform="translate(60,29)"/>
<path d="M0 0 C2.0625 0.4375 2.0625 0.4375 4 1 C3.23580786 10.01746725 3.23580786 10.01746725 0 14 C-0.99 14 -1.98 14 -3 14 C-3.66 13.34 -4.32 12.68 -5 12 C-4.64964824 7.79577882 -3.03580511 3.03580511 0 0 Z " fill="#FFC24B" transform="translate(39,11)"/>
<path d="M0 0 C0.99 0 1.98 0 3 0 C2.45276317 3.37462715 1.9451 5.08235 0 8 C-0.66 8 -1.32 8 -2 8 C-1.125 1.125 -1.125 1.125 0 0 Z " fill="#FFF5E4" transform="translate(39,17)"/>
</svg>
