<svg width="55" height="48" viewBox="0 0 55 48" fill="none" xmlns="http://www.w3.org/2000/svg">
<path d="M52.972 21.892L29.961 1.22423C28.6367 0.0339805 26.4874 0.0339805 25.161 1.22423L20.3836 5.51648L26.4448 10.9607C27.8539 10.5336 29.4687 10.8201 30.5914 11.8285C31.1264 12.3095 31.4999 12.916 31.6692 13.5787C31.8385 14.2414 31.7967 14.9335 31.5487 15.5759L37.3903 20.8236C38.8035 20.386 40.4347 20.6687 41.5627 21.6842C43.1409 23.1006 43.1409 25.3967 41.5627 26.8139C41.1877 27.1509 40.7424 27.4182 40.2523 27.6006C39.7622 27.783 39.2369 27.8769 38.7065 27.8769C38.176 27.8769 37.6507 27.783 37.1606 27.6006C36.6705 27.4182 36.2252 27.1509 35.8502 26.8139C35.2867 26.3074 34.9026 25.6626 34.7462 24.9606C34.5899 24.2585 34.6682 23.5306 34.9713 22.8685L29.5239 17.9751L29.523 30.853C29.9183 31.0278 30.2791 31.2593 30.5914 31.5385C32.1691 32.9549 32.1691 35.2502 30.5914 36.6696C29.0137 38.086 26.4565 38.086 24.8805 36.6696C23.3032 35.2506 23.1738 32.9552 24.7506 31.5385C25.1406 31.1886 25.5251 30.9242 25.9426 30.7472V17.7501C25.5251 17.5731 25.141 17.3106 24.7502 16.9585C23.5558 15.886 23.3324 14.311 23.9453 12.9925L18.0031 7.62511L2.24097 21.7964C0.915425 22.9877 0.923775 24.9182 2.24932 26.1089L25.2642 46.7766C26.5889 47.9669 28.7398 47.9669 30.0666 46.7766L52.9704 26.2049C54.2959 25.0139 54.2972 23.0822 52.972 21.892Z" fill="#F34F29"/>
</svg>
