<svg width="54" height="48" viewBox="0 0 54 48" fill="none" xmlns="http://www.w3.org/2000/svg">
<path d="M7.94779 42.7037L3.77075 0.623047H49.6685L45.4869 42.6973L26.6916 47.3773L7.94779 42.7037Z" fill="#E44D26"/>
<path d="M26.7197 43.8L41.9074 40.0177L45.4807 4.06348H26.7197V43.8Z" fill="#F16529"/>
<path d="M26.7197 19.6706H19.1163L18.5911 14.3854H26.7197V9.22461H12.3115L12.4493 10.6091L13.8613 24.8317H26.7197V19.6706ZM26.7197 33.0742L26.6942 33.0806L20.2953 31.5281L19.8866 27.4125H14.118L14.923 35.5159L26.6934 38.4506L26.7197 38.4442V33.0742Z" fill="#EBEBEB"/>
<path d="M26.6997 19.6706V24.8317H33.775L33.1083 31.5251L26.6997 33.0787V38.4484L38.4793 35.5159L38.5658 34.644L39.9159 21.0566L40.0558 19.6706H38.5077H26.6997ZM26.6997 9.22461V14.3854H40.5789L40.6941 13.2259L40.9563 10.6091L41.0937 9.22461H26.6997Z" fill="white"/>
</svg>
