<svg width="54" height="48" viewBox="0 0 54 48" fill="none" xmlns="http://www.w3.org/2000/svg">
<path d="M1.15234 0.527832H53.416V47.4722H1.15234V0.527832Z" fill="#F0DB4F"/>
<path d="M49.1387 36.2758C48.7559 34.1342 47.2011 32.3353 42.5957 30.658C40.9959 29.9976 39.2123 29.5247 38.6809 28.4357C38.4922 27.802 38.4671 27.445 38.5865 27.0613C38.9293 25.8163 40.5838 25.4282 41.8952 25.7852C42.7398 26.0395 43.5393 26.6241 44.0215 27.5567C46.2768 26.245 46.2722 26.2536 47.847 25.3521C47.2704 24.5492 46.9627 24.1787 46.5853 23.8352C45.2289 22.4743 43.3806 21.7735 40.4248 21.8271L38.885 22.006C37.4096 22.3408 36.0035 23.0365 35.1789 23.9691C32.7049 26.4906 33.4104 30.9036 36.421 32.7197C39.3869 34.7192 43.7438 35.1741 44.3004 37.0438C44.8419 39.3328 42.4275 40.0738 40.0277 39.8106C38.2592 39.4802 37.2756 38.6728 36.2122 37.2047C34.255 38.2221 34.255 38.2221 32.2427 39.2616C32.7199 40.1987 33.2213 40.6228 34.0212 41.4347C37.8071 44.884 47.2809 44.7145 48.9801 39.4937C49.0489 39.3145 49.5065 38.119 49.1387 36.2758ZM29.5645 22.1035H24.676L24.656 33.4555C24.656 35.8697 24.795 38.083 24.3579 38.7613C23.6427 40.0956 21.7894 39.9302 20.9449 39.6715C20.0852 39.292 19.6481 38.7523 19.1417 37.9896C19.0027 37.7706 18.8983 37.6011 18.8632 37.588L14.8887 39.7742C15.5496 40.9926 16.5232 42.0501 17.7702 42.7371C19.6331 43.7413 22.1368 44.0492 24.7553 43.5092C26.4595 43.0633 27.93 42.1397 28.6998 40.7338C29.8129 38.8907 29.5741 36.6598 29.564 34.1923C29.5891 30.1667 29.5645 26.1418 29.5645 22.1035Z" fill="#323330"/>
</svg>
