<svg width="55" height="48" viewBox="0 0 55 48" fill="none" xmlns="http://www.w3.org/2000/svg">
<path d="M22.8248 25.4315C22.8248 25.4315 21.4537 26.1481 23.8022 26.3904C26.647 26.6821 28.1011 26.6401 31.2357 26.108C31.2357 26.108 32.0619 26.5719 33.2125 26.9739C26.1835 29.6788 17.3043 26.8171 22.8248 25.4315ZM21.9652 21.9009C21.9652 21.9009 20.4271 22.9243 22.7772 23.1425C25.8166 23.4241 28.2159 23.4474 32.3708 22.7289C32.3708 22.7289 32.944 23.2524 33.8471 23.5378C25.3502 25.7705 15.886 23.7136 21.9652 21.9009Z" fill="#0074BD"/>
<path d="M29.206 15.9116C30.939 17.7033 28.7517 19.3143 28.7517 19.3143C28.7517 19.3143 33.1492 17.2755 31.1298 14.7213C29.2431 12.3405 27.7973 11.1581 35.6266 7.07959C35.627 7.07959 23.3364 9.83584 29.206 15.9116Z" fill="#EA2D2E"/>
<path d="M38.5021 28.0429C38.5021 28.0429 39.5175 28.7948 37.3841 29.376C33.3277 30.4797 20.4989 30.8127 16.9356 29.4199C15.6555 28.9193 18.0574 28.2248 18.8126 28.0789C19.6005 27.9255 20.0505 27.9537 20.0505 27.9537C18.626 27.0525 10.8427 29.7233 16.0973 30.4894C30.4274 32.5755 42.2187 29.5497 38.5021 28.0429ZM23.4848 18.2427C23.4848 18.2427 16.9598 19.635 21.1744 20.1413C22.9546 20.355 26.5008 20.3059 29.8065 20.0569C32.5073 19.8533 35.2177 19.4179 35.2177 19.4179C35.2177 19.4179 34.2662 19.7847 33.5769 20.2069C26.9496 21.7725 14.1496 21.0432 17.8349 19.4427C20.9506 18.0885 23.4848 18.2427 23.4848 18.2427ZM35.1906 24.1189C41.9268 20.9757 38.8119 17.9547 36.638 18.3615C36.1065 18.4613 35.8677 18.5475 35.8677 18.5475C35.8677 18.5475 36.066 18.2685 36.443 18.1489C40.7441 16.7914 44.0511 22.1543 35.0561 24.2783C35.0561 24.2783 35.1592 24.1943 35.1906 24.1189Z" fill="#0074BD"/>
<path d="M31.1302 0.492188C31.1302 0.492188 34.8605 3.84431 27.5915 8.99794C21.7624 13.1331 26.2622 15.4903 27.589 18.1847C24.1864 15.4269 21.6906 12.9992 23.3648 10.7402C25.8234 7.42444 32.6348 5.81606 31.1302 0.492188Z" fill="#EA2D2E"/>
<path d="M24.1474 32.6398C30.6119 33.011 40.542 32.4332 40.7771 29.6855C40.7771 29.6855 40.3254 30.7269 35.4336 31.5534C29.9151 32.4864 23.1079 32.378 19.0715 31.7795C19.0715 31.7795 19.8982 32.3945 24.1474 32.6398Z" fill="#0074BD"/>
<path d="M40.4787 37.5677H40.2816V37.4687H40.8118V37.5677H40.6156V38.0616H40.4782L40.4787 37.5677ZM41.537 37.5925H41.5345L41.3391 38.0616H41.2489L41.0548 37.5925H41.0527V38.0616H40.9224V37.4687H41.1132L41.2932 37.8884L41.4735 37.4687H41.6631V38.0616H41.537V37.5925ZM23.0879 43.1387C22.4784 43.6135 21.8337 43.8805 21.2547 43.8805C20.4305 43.8805 19.9834 43.4357 19.9834 42.7236C19.9834 41.953 20.4619 41.3886 22.379 41.3886H23.0875V43.1387H23.0879ZM24.7708 44.8442V39.5654C24.7708 38.2157 23.9137 37.3255 21.8496 37.3255C20.6447 37.3255 19.5885 37.5932 18.7297 37.9337L18.9768 38.8686C19.6532 38.6455 20.5278 38.4385 21.3862 38.4385C22.576 38.4385 23.0875 38.8686 23.0875 39.7589V40.426H22.493C19.6035 40.426 18.2996 41.4329 18.2996 42.9471C18.2996 44.2517 19.1588 44.9931 20.7766 44.9931C21.8162 44.9931 22.5932 44.6076 23.3184 44.0432L23.4503 44.8446H24.7708V44.8442ZM30.387 44.8442H28.2882L25.762 37.4609H27.5952L29.1633 41.998L29.5119 43.3611C30.3035 41.3894 30.8646 39.3876 31.1451 37.4612H32.9283C32.4511 39.8916 31.591 42.5605 30.387 44.8442ZM38.4396 43.1387C37.828 43.6135 37.1829 43.8805 36.606 43.8805C35.781 43.8805 35.3343 43.4357 35.3343 42.7236C35.3343 41.953 35.814 41.3886 37.729 41.3886H38.4392V43.1387H38.4396ZM40.1234 44.8442V39.5654C40.1234 38.2157 39.2637 37.3255 37.2013 37.3255C35.9952 37.3255 34.9393 37.5932 34.0805 37.9337L34.3281 38.8686C35.0045 38.6455 35.8804 38.4385 36.7387 38.4385C37.9269 38.4385 38.4396 38.8686 38.4396 39.7589V40.426H37.8451C34.9548 40.426 33.6514 41.4329 33.6514 42.9471C33.6514 44.2517 34.5097 44.9931 36.1271 44.9931C37.1671 44.9931 37.9428 44.6076 38.6701 44.0432L38.8028 44.8446H40.1234V44.8442ZM16.4543 46.099C15.9754 46.7286 15.1997 47.227 14.3514 47.5079L13.521 46.6285C14.1669 46.3307 14.72 45.8504 14.9776 45.4026C15.1997 45.004 15.292 44.4914 15.292 43.2647V34.834H17.0806V43.1489C17.0806 44.7895 16.9353 45.4529 16.4543 46.099Z" fill="#EA2D2E"/>
</svg>
