<svg width="55" height="48" viewBox="0 0 55 48" fill="none" xmlns="http://www.w3.org/2000/svg">
<path d="M20.9199 29.6327L21.0005 29.6679L21.1441 29.7302C21.3274 29.8086 21.5124 29.8862 21.699 29.9608L21.8163 30.0077C22.0305 30.0921 22.2459 30.1723 22.4638 30.2496L22.6217 30.3051C22.8229 30.3756 23.0275 30.4438 23.2325 30.5087L23.3093 30.5323C23.5343 30.6028 23.7614 30.6684 23.9906 30.7326L24.1555 30.7764C24.3885 30.8398 24.6185 30.9152 24.859 30.9553C40.1201 33.4547 44.5527 22.7177 44.5527 22.7177C40.8294 27.0744 34.2209 28.2238 27.9593 26.9443C27.7222 26.8963 27.4917 26.8296 27.2604 26.7681L27.0863 26.7208C26.8608 26.6586 26.6365 26.5931 26.4133 26.5243L26.3211 26.4943C26.1222 26.4311 25.9245 26.3652 25.7278 26.2967L25.5617 26.2382C25.3465 26.1621 25.133 26.0824 24.9212 25.9989L24.793 25.9479C24.612 25.8746 24.4319 25.7993 24.2528 25.7222L24.0962 25.6547C23.956 25.5932 23.8169 25.5276 23.6783 25.4634L23.3994 25.3322C23.2309 25.2508 23.064 25.1666 22.8989 25.0798L22.7298 24.9951C22.5102 24.8784 22.2927 24.7586 22.0772 24.6358L21.9015 24.5308C21.7451 24.4407 21.5903 24.3483 21.4372 24.2537L21.2878 24.1592C21.14 24.0654 20.9938 23.9706 20.849 23.8742L20.6544 23.7418C20.5212 23.6508 20.3892 23.5583 20.2586 23.4643L20.082 23.3368C19.9158 23.2143 19.7513 23.0899 19.5886 22.9637L19.5347 22.9228C19.3589 22.7846 19.1858 22.6437 19.0153 22.5002L18.8692 22.3738C18.7427 22.2662 18.6187 22.1574 18.4964 22.0461L18.3503 21.9148C18.1953 21.7723 18.0429 21.6275 17.8931 21.4806L17.8706 21.4588C17.7126 21.3035 17.558 21.1454 17.4067 20.9848L17.2852 20.8551C17.1725 20.7332 17.0606 20.6094 16.9517 20.4846L16.8293 20.3481C16.6984 20.1961 16.57 20.0425 16.444 19.8872C12.9679 15.6279 11.7188 9.75356 14.4972 4.92919L12.0344 7.73494C8.87855 11.8086 9.27183 17.1088 11.682 21.4378L11.8586 21.7457L11.9718 21.9407L12.0419 22.0528L12.1676 22.2549C12.2423 22.3734 12.3187 22.4912 12.3972 22.6089L12.5287 22.8036C12.6156 22.9296 12.7045 23.0541 12.7959 23.1786L12.9095 23.3368C13.0351 23.5048 13.1637 23.6728 13.2961 23.8378L13.3073 23.8509L13.3725 23.9301C13.4873 24.0722 13.6054 24.2124 13.7248 24.3512L13.8576 24.5027C13.9641 24.6231 14.073 24.7431 14.1832 24.8623L14.3077 24.9954C14.4559 25.1526 14.607 25.3086 14.7615 25.4612L14.7707 25.4698L14.7882 25.4871C14.9385 25.6348 15.093 25.7788 15.2491 25.9236L15.3969 26.0574C15.518 26.1669 15.6407 26.2746 15.7651 26.3818L15.9158 26.5104C16.0816 26.6507 16.249 26.7883 16.4202 26.9233L16.4285 26.9289L16.5162 26.9964C16.6669 27.1134 16.8206 27.2301 16.975 27.3444L17.165 27.4802C17.2911 27.5709 17.4188 27.6606 17.5474 27.7487L17.7516 27.8882C17.8935 27.9819 18.0363 28.0742 18.1803 28.1646L18.3369 28.2643L18.3799 28.2917C18.5168 28.3764 18.6567 28.4574 18.7966 28.5388L18.9769 28.6468C19.1911 28.7687 19.409 28.8891 19.6291 29.0053L19.8094 29.0968C19.9714 29.1804 20.1338 29.2626 20.2987 29.3428L20.5692 29.4688L20.9199 29.6327ZM22.4618 15.8346C22.8037 16.2748 23.1824 16.7983 23.6362 17.1523C23.8007 17.3151 23.9727 17.4733 24.148 17.6297L24.2833 17.7489C24.454 17.8974 24.6273 18.0433 24.806 18.1854L24.8277 18.2019L24.8327 18.2068C25.031 18.3628 25.2356 18.5128 25.4435 18.6606L25.5825 18.7581C25.7913 18.9017 26.0038 19.0427 26.2217 19.1773L26.2405 19.1897L26.5319 19.3622L26.6705 19.4447C26.8262 19.5339 26.9836 19.6217 27.1444 19.7049L27.2112 19.7398C27.3494 19.8114 27.4896 19.8819 27.6299 19.9502L27.7786 20.0203L28.0716 20.1564L28.1159 20.1744C28.3171 20.2633 28.52 20.3488 28.7271 20.4302L28.862 20.4801C29.0273 20.5431 29.1947 20.6049 29.3625 20.6627L29.5771 20.7332C29.7299 20.7842 29.8827 20.8307 30.0372 20.8768L30.2455 20.9368C30.4651 20.9979 30.6818 21.0752 30.9106 21.1093C42.6931 22.8632 45.4135 14.7141 45.4135 14.7141C42.9612 17.8862 38.2126 19.3993 33.145 18.2181C32.9211 18.1652 32.6986 18.1075 32.4779 18.0448L32.2771 17.9867C32.1205 17.9413 31.9648 17.8929 31.8103 17.8423L31.5999 17.7718C31.4312 17.7136 31.2637 17.653 31.0972 17.5899L30.962 17.5382C30.7547 17.4572 30.5498 17.3715 30.3474 17.2813L30.0389 17.1403L29.861 17.0582C29.7299 16.9944 29.5997 16.9277 29.4711 16.8606L29.378 16.8129C29.2187 16.7294 29.0611 16.6433 28.9054 16.5546L28.763 16.4687L28.4574 16.2872C28.2413 16.1526 28.0291 16.0132 27.8207 15.8691L27.6775 15.7674C25.4594 14.1951 23.7013 12.0448 22.8651 9.60694C21.9891 7.07944 22.1779 4.24144 23.6955 1.93856L21.8309 4.30331C19.5489 7.25269 19.6729 11.2018 21.4531 14.3214C21.7508 14.8457 22.0878 15.3512 22.4618 15.8346ZM34.881 12.1854L35.1736 12.2766L35.3026 12.3133C35.4417 12.3523 35.579 12.3981 35.7222 12.4221C42.2281 13.5512 43.9932 9.42319 44.4629 8.81569C42.9169 10.8148 40.3193 11.2944 37.1317 10.5996C36.8707 10.5399 36.6132 10.4686 36.3602 10.3858C36.0486 10.2864 35.743 10.1724 35.4446 10.0446C34.8782 9.79979 34.3403 9.50496 33.8389 9.16444C30.9866 7.22006 29.2147 3.51244 31.0759 0.492188L30.0689 1.73869C28.7238 3.51731 28.5914 5.72606 29.5249 7.68956C30.5094 9.77456 32.5267 11.4096 34.881 12.1854ZM28.601 36.1108H26.8367C26.7868 36.1125 26.7388 36.1287 26.6999 36.1569C26.661 36.185 26.6333 36.2237 26.6208 36.2672L25.9946 38.8697L25.3684 41.4722C25.356 41.5156 25.3284 41.5544 25.2896 41.5825C25.2508 41.6107 25.2028 41.6269 25.1529 41.6286H23.9042C22.6688 41.6286 22.8116 40.8609 23.0646 39.8094L23.0721 39.7776L23.0997 39.6448L23.1047 39.6201L23.1611 39.3501L23.2216 39.0609L23.2859 38.7666L23.5706 37.5171L23.8558 36.2676C23.8612 36.2485 23.8616 36.2285 23.8569 36.2093C23.8522 36.19 23.8425 36.172 23.8287 36.1568C23.8148 36.1415 23.7972 36.1293 23.7772 36.1213C23.7572 36.1132 23.7353 36.1095 23.7134 36.1104H21.9027C21.8529 36.1121 21.8049 36.1283 21.7662 36.1565C21.7275 36.1848 21.7001 36.2237 21.6881 36.2672L21.2986 37.9262L20.9095 39.5856L20.9087 39.5878L20.8728 39.7423C20.4244 41.5809 20.5429 43.3348 22.9803 43.3899L23.0513 43.3911H26.8768C26.9267 43.3894 26.9746 43.3732 27.0134 43.345C27.0522 43.3169 27.0799 43.2781 27.0922 43.2347L27.9172 39.7513L28.7421 36.2676C28.7626 36.1813 28.6991 36.1112 28.601 36.1108ZM9.70686 36.0924H7.76969C7.71964 36.0942 7.67153 36.1103 7.63239 36.1383C7.59326 36.1664 7.56514 36.205 7.55217 36.2484L7.36847 36.9767L7.18478 37.7049C7.16348 37.7908 7.22569 37.8609 7.3238 37.8609H9.27601C9.326 37.8593 9.37406 37.8432 9.41303 37.815C9.452 37.7868 9.4798 37.7481 9.49227 37.7046L9.66971 36.9767L9.84714 36.2488C9.8676 36.1629 9.80497 36.0924 9.70686 36.0924ZM9.14491 38.3589H7.19229C7.14226 38.3607 7.09419 38.3768 7.05506 38.4049C7.01594 38.433 6.98781 38.4715 6.97478 38.5149L6.70048 39.6062L6.4266 40.6971L6.3502 41.0098L6.08676 42.1236L5.82374 43.2377C5.80328 43.3236 5.76112 43.4623 5.7298 43.5456C5.7298 43.5456 5.36491 44.5206 4.75161 44.5093L4.6748 44.5078L4.14416 44.4992H4.14374C4.09389 44.5002 4.04574 44.5156 4.00636 44.5431C3.96698 44.5706 3.93845 44.6087 3.92497 44.6518L3.72249 45.4164L3.52042 46.1807C3.49746 46.2662 3.55925 46.3367 3.65652 46.3382C4.0043 46.3419 4.78334 46.3498 5.2547 46.3498C6.78649 46.3498 7.59434 45.5874 8.11161 43.3937L8.7174 40.8759L9.28561 38.5146C9.30607 38.4294 9.24261 38.3589 9.14491 38.3589ZM45.0983 37.7687L45.0173 37.4683L44.9376 37.1608L44.8971 37.0056C44.7385 36.4517 44.2729 36.1326 43.2618 36.1326L41.6878 36.1311L40.2383 36.1292H38.6071C38.5573 36.1308 38.5094 36.147 38.4706 36.1752C38.4318 36.2034 38.4043 36.2421 38.3921 36.2856L38.3199 36.5916L38.2347 36.9531L38.2109 37.0547L37.4765 40.1447L36.7793 43.0779C36.7585 43.1642 36.7518 43.2699 36.7635 43.3127C36.7752 43.3558 36.9634 43.3911 37.0611 43.3911H38.5324C38.6305 43.3911 38.7545 43.3753 38.8079 43.3558C38.8614 43.3363 38.9403 43.1634 38.9599 43.0776L39.2213 41.9154L39.483 40.7529L39.4834 40.7511L39.5185 40.5962L39.8358 39.2612L40.1159 38.0822C40.1283 38.0388 40.1559 38.0002 40.1946 37.972C40.2333 37.9438 40.2812 37.9276 40.331 37.9258L44.9606 37.9239C45.0587 37.9247 45.1205 37.8546 45.0983 37.7687ZM51.0581 35.0537L50.7015 35.0548H49.2198C49.1656 35.0576 49.1126 35.0708 49.0645 35.0937C49.0164 35.1165 48.9744 35.1484 48.9414 35.1872L45.6645 39.4989C45.6093 39.5717 45.5463 39.5612 45.5246 39.4757L45.2833 38.5258C45.2703 38.4823 45.2421 38.4437 45.2029 38.4156C45.1637 38.3875 45.1155 38.3715 45.0653 38.3698H42.9591C42.861 38.3698 42.8029 38.4388 42.8297 38.5232L43.7736 41.4936C43.8003 41.5783 43.8024 41.7171 43.7782 41.8026L43.367 43.2399C43.3424 43.3254 43.4025 43.3948 43.5006 43.3948H45.5826C45.633 43.393 45.6815 43.3771 45.7213 43.3493C45.7611 43.3215 45.7903 43.2833 45.8047 43.2399L46.2164 41.8026C46.249 41.7013 46.3002 41.6056 46.3679 41.5194L51.6877 35.1778C51.7469 35.1073 51.7148 35.0499 51.6171 35.0507L51.0581 35.0537ZM34.3224 38.7733V38.7718C34.3151 38.8171 34.2902 38.8586 34.2521 38.8889C34.2139 38.9192 34.165 38.9363 34.114 38.9372H31.4433C31.3506 38.9372 31.3039 38.8809 31.3177 38.8112L31.3202 38.8056L31.3185 38.8063L31.3197 38.7984L31.3319 38.7576C31.5869 38.1486 32.1063 37.7488 33.0828 37.7488C34.1825 37.7484 34.3971 38.2307 34.3224 38.7733ZM33.5387 36.0043C30.1107 36.0043 29.2982 37.8733 28.8423 39.7599C28.3868 41.6829 28.4257 43.4803 31.9735 43.4803H32.4036L32.5104 43.4799H32.5355L32.9613 43.4788H32.9689C33.9057 43.4754 34.8455 43.4691 35.2258 43.4664C35.2754 43.4642 35.3228 43.4476 35.3611 43.4193C35.3994 43.3909 35.4265 43.3522 35.4383 43.3089L35.582 42.6786L35.6099 42.5559L35.7811 41.8037C35.7866 41.7846 35.7869 41.7647 35.7822 41.7454C35.7775 41.7262 35.7679 41.7083 35.754 41.693C35.7402 41.6777 35.7225 41.6656 35.7025 41.6576C35.6825 41.6496 35.6606 41.646 35.6387 41.6469H32.4495C31.1807 41.6469 30.8041 41.3443 30.9432 40.4541H36.0412L36.0408 40.4544L36.0441 40.4541C36.0844 40.4525 36.1234 40.4405 36.1564 40.4196C36.1893 40.3986 36.2149 40.3696 36.2299 40.3359L36.242 40.2962L36.2416 40.2966C36.9985 37.7319 36.7814 36.0047 33.5387 36.0043ZM17.3358 38.7636L17.2873 38.9169V38.9173L16.9024 40.1428L16.5175 41.3679C16.5017 41.4114 16.4716 41.4494 16.431 41.4769C16.3905 41.5045 16.3415 41.5202 16.2908 41.5221H14.2534C12.7078 41.5221 12.3312 40.4361 12.7078 38.8348C13.084 37.1968 13.8217 36.1787 15.343 36.0756C17.4222 35.9346 17.838 37.2478 17.3358 38.7636ZM18.7335 41.4279C18.7335 41.4279 19.6942 39.3324 19.9121 38.1227C20.2098 36.5031 19.3067 34.1533 15.819 34.1533C12.3513 34.1533 10.845 36.3962 10.2705 38.8348C9.69601 41.2911 10.4488 43.4447 13.8968 43.4271L16.6172 43.4181L19.1594 43.4098C19.2098 43.4076 19.2582 43.3915 19.298 43.3637C19.3379 43.3359 19.3673 43.2978 19.3823 43.2546L19.8253 41.7373C19.8499 41.6518 19.7902 41.5821 19.6921 41.5813L19.2675 41.5791L18.8429 41.5768C18.7598 41.5764 18.7122 41.5277 18.7223 41.4636L18.7335 41.4279ZM35.9009 40.0251C35.9009 40.0388 35.8979 40.0525 35.8921 40.0653C35.8862 40.078 35.8777 40.0896 35.8668 40.0994C35.856 40.1091 35.8431 40.1169 35.8289 40.1222C35.8148 40.1275 35.7996 40.1302 35.7842 40.1302C35.7689 40.1303 35.7537 40.1276 35.7395 40.1223C35.7253 40.1171 35.7124 40.1094 35.7015 40.0996C35.6906 40.0899 35.682 40.0783 35.6761 40.0656C35.6702 40.0529 35.6671 40.0392 35.6671 40.0254C35.6671 39.9976 35.6793 39.9709 35.7012 39.9511C35.7231 39.9314 35.7528 39.9203 35.7838 39.9202C35.8148 39.9202 35.8446 39.9312 35.8665 39.9509C35.8885 39.9705 35.9009 39.9972 35.9009 40.0251Z" fill="#0868AC"/>
</svg>
