<svg width="81" height="72" viewBox="0 0 81 72" fill="none" xmlns="http://www.w3.org/2000/svg">
<path d="M1.57509 50.8827H4.14769V41.7573L8.1306 49.7127C8.60028 50.6757 9.24343 51.016 10.5053 51.016C11.7672 51.016 12.3859 50.6757 12.8556 49.7127L16.8385 41.7573V50.8827H19.4111V41.7724C19.4111 40.8837 19.0153 40.4534 18.1987 40.2318C16.2442 39.6839 14.9328 40.1581 14.3392 41.3433L10.4308 49.1946L6.6464 41.3427C6.07715 40.1581 4.74137 39.6839 2.78687 40.2312C1.97025 40.4534 1.57446 40.8831 1.57446 41.7719V50.8827H1.57509ZM21.551 43.4543H24.123V48.4819C24.0992 48.7548 24.2206 49.396 25.6297 49.4163C26.3486 49.4264 31.1795 49.4163 31.2245 49.4163V43.4296H33.8028C33.8147 43.4296 33.8003 51.5937 33.8003 51.6274C33.8141 53.6412 31.0191 54.0783 29.7303 54.112H21.6067V52.5573C21.6205 52.5573 29.7247 52.5589 29.7447 52.5567C31.4011 52.3998 31.2051 51.6606 31.2045 51.412V50.8056H25.7368C23.193 50.7848 21.5723 49.7875 21.5516 48.64C21.5503 48.5348 21.6073 43.5049 21.551 43.4543Z" fill="#00618A"/>
<path d="M35.7861 50.8828H43.1833C44.0494 50.8828 44.8911 50.7203 45.5586 50.439C46.6715 49.98 47.2157 49.3579 47.2157 48.5423V46.8537C47.2157 46.1871 46.5976 45.5644 45.3852 45.1504C44.742 44.9277 43.9498 44.8101 43.1827 44.8101H40.0652C39.0263 44.8101 38.5316 44.5288 38.4082 43.9067C38.3838 43.8325 38.3838 43.7734 38.3838 43.6992V42.6473C38.3838 42.5882 38.3838 42.5286 38.4082 42.4549C38.5316 41.9807 38.804 41.8474 39.7196 41.7732L39.9669 41.7585H47.3146V40.2184H40.0909C39.052 40.2184 38.5078 40.2775 38.0131 40.4108C36.4794 40.8405 35.8106 41.5217 35.8106 42.7069V44.0547C35.8106 45.0919 37.1225 45.9807 39.3238 46.1882C39.5718 46.2023 39.8185 46.218 40.0659 46.218H42.7381C42.837 46.218 42.9359 46.218 43.0105 46.2321C43.8271 46.2912 44.1728 46.425 44.4208 46.6911C44.4843 46.7438 44.5347 46.808 44.5687 46.8794C44.6027 46.9509 44.6195 47.028 44.618 47.1057V48.454C44.618 48.6165 44.4947 48.8241 44.2473 49.0018C44.025 49.1796 43.6536 49.2983 43.1589 49.3281L42.8865 49.3427H35.7861V50.8828ZM63.2663 48.202C63.2663 49.7865 64.5776 50.6753 67.2241 50.8536C67.4715 50.8682 67.7189 50.8828 67.9662 50.8828H74.6708V49.3427H67.9174C66.4081 49.3427 65.8395 49.0018 65.8395 48.1868V40.2173H63.2669V48.202H63.2663ZM48.8577 48.2818V42.789C48.8577 41.394 49.9486 40.5475 52.1054 40.2803C52.3352 40.2507 52.5671 40.2358 52.7993 40.2358H57.6833C57.9313 40.2358 58.1543 40.2505 58.4016 40.2803C60.5584 40.5475 61.6499 41.3935 61.6499 42.789V48.2818C61.6499 49.4147 61.1865 50.02 60.1188 50.4148L62.6538 52.4697H59.666L57.6157 50.8069L55.5516 50.9245H52.7993C52.288 50.9215 51.7795 50.8566 51.2875 50.7315C49.6511 50.331 48.8577 49.5587 48.8577 48.2818ZM51.6344 48.1485C51.6344 48.2228 51.6589 48.2976 51.6839 48.3865C51.8323 49.0249 52.5024 49.381 53.5182 49.381H55.8553L53.7086 47.64H56.6964L58.5682 49.1588C58.9139 48.9928 59.1406 48.7408 59.2201 48.4163C59.2446 48.342 59.2445 48.2678 59.2445 48.1935V42.924C59.2445 42.865 59.2446 42.7902 59.2201 42.7159C59.0711 42.1219 58.4016 41.781 57.4103 41.781H53.5176C52.3778 41.781 51.6338 42.2265 51.6338 42.924V48.1485H51.6344Z" fill="#E48E00"/>
<path d="M76.9341 37.6606C75.3528 37.6218 74.1448 37.754 73.1115 38.145C72.8178 38.2563 72.35 38.2591 72.3024 38.5893C72.4633 38.7418 72.4884 38.9685 72.6167 39.1552C72.8635 39.5135 73.2799 39.9939 73.6513 40.2453C74.0565 40.5204 74.4748 40.8151 74.9107 41.0536C75.6841 41.4778 76.5483 41.7196 77.2942 42.1438C77.7331 42.3946 78.169 42.7096 78.598 42.9926C78.8103 43.1315 78.9518 43.3492 79.228 43.4364V43.3965C79.0833 43.2311 79.0458 43.0038 78.913 42.8306L78.3281 42.3052C77.7563 41.6235 77.0311 41.0255 76.259 40.5283C75.644 40.1317 74.2675 39.5956 74.0108 38.9527L73.9657 38.9128C74.4015 38.8683 74.9125 38.7266 75.3146 38.6298C75.9909 38.4667 76.5953 38.5089 77.2935 38.3469L78.2379 38.1039V37.943C77.8853 37.6179 77.6329 37.187 77.2484 36.8928C76.2421 36.1228 75.1424 35.3533 74.0108 34.7109C73.3833 34.3554 72.6073 34.1242 71.9417 33.8227C71.7187 33.7209 71.3254 33.6686 71.177 33.4993C70.8269 33.0993 70.6372 32.5925 70.3673 32.1262C69.7908 31.1188 69.2509 30.0949 68.7484 29.0561C68.4078 28.3558 68.1848 27.665 67.7596 27.0367C65.7174 24.0211 63.5193 22.2009 60.1144 20.4121C59.3899 20.0313 58.5175 19.8817 57.5963 19.6854L56.1121 19.6044C55.8109 19.4913 55.4965 19.1595 55.2128 18.9986C54.0844 18.3585 51.1911 16.9663 50.3557 18.7972C49.8284 19.9526 51.1448 21.0798 51.6151 21.6654C51.9451 22.076 52.3684 22.5361 52.6045 22.998C52.7598 23.3017 52.7861 23.606 52.9195 23.9272C53.2458 24.7181 53.5308 25.5793 53.9535 26.31C54.167 26.6801 54.4031 27.0699 54.673 27.4006C54.8383 27.6031 55.1227 27.6931 55.1671 28.0065C54.8897 28.3552 54.8734 28.8975 54.7175 29.339C54.0148 31.3297 54.2797 33.8041 55.3024 35.2773C55.6161 35.7301 56.3551 36.6999 57.3709 36.3275C58.2595 36.0024 58.0616 34.995 58.3159 34.1056C58.3735 33.9048 58.3378 33.7563 58.4505 33.6213V33.6618L59.2602 35.1159C59.8596 35.9827 60.9223 36.8878 61.8235 37.4992C62.2906 37.8159 62.6589 38.3643 63.2626 38.5494V38.5083H63.2181C63.1004 38.3446 62.9181 38.2771 62.7678 38.145C62.4159 37.835 62.0245 37.4503 61.7339 37.0948C60.9142 36.0958 60.1902 35.0017 59.5302 33.8632C59.2152 33.3198 58.9415 32.7202 58.676 32.1667C58.5733 31.9535 58.5745 31.6306 58.3616 31.521C58.0698 31.926 57.642 32.2539 57.4166 32.7326C57.0571 33.4976 57.0108 34.4308 56.8774 35.3983L56.7872 35.4382C56.1603 35.3026 55.9405 34.7233 55.7076 34.2266C55.1189 32.9705 55.0093 30.9472 55.5278 29.501C55.6619 29.1264 56.2674 27.948 56.0219 27.602C55.9048 27.2572 55.5184 27.0581 55.303 26.7937C55.0204 26.4399 54.7792 26.0609 54.5835 25.6625C54.1013 24.6832 53.8764 23.5835 53.3698 22.593C53.1268 22.1193 52.7173 21.6406 52.3803 21.2199C52.0077 20.753 51.59 20.4099 51.3007 19.8463C51.198 19.646 51.0583 19.3248 51.2105 19.119C51.2587 18.98 51.3283 18.9221 51.4811 18.8765C51.7416 18.696 52.468 18.9367 52.7398 19.038C53.4612 19.3074 54.0631 19.5633 54.6743 19.9267C54.9674 20.1016 55.2636 20.4391 55.6186 20.5325H56.0232C56.6563 20.663 57.3659 20.5725 57.957 20.7339C59.0029 21.0196 59.9397 21.4635 60.7902 21.9461C63.3822 23.4165 65.5007 25.509 66.9511 28.0053C67.1841 28.4075 67.2855 28.7906 67.4903 29.217C67.9049 30.0765 68.4272 30.9613 68.8393 31.8022C69.2507 32.6409 69.6521 33.4875 70.2339 34.1855C70.5395 34.5523 71.7206 34.7491 72.2573 34.9528C72.6336 35.0956 73.2499 35.2447 73.6062 35.4371C74.2869 35.8061 74.947 36.2454 75.5851 36.6493C75.9039 36.8529 76.8852 37.2956 76.9341 37.6606ZM56.8323 22.2712C56.5597 22.2672 56.2876 22.2944 56.0226 22.3522V22.3921H56.0677C56.2248 22.683 56.5023 22.8697 56.697 23.1195L57.1473 23.9677L57.1918 23.9278C57.4704 23.7517 57.5976 23.4699 57.5963 23.039C57.4842 22.9333 57.4679 22.8011 57.3715 22.6756C57.2437 22.5069 56.9945 22.4124 56.8323 22.2712Z" fill="#00618A"/>
</svg>
