<svg width="108" height="96" viewBox="0 0 108 96" fill="none" xmlns="http://www.w3.org/2000/svg">
<path d="M96.329 60.5618C96.0868 60.5618 95.8464 60.5048 95.6343 60.3938L93.4215 59.2178C93.0909 59.0521 93.2521 58.9928 93.3614 58.9591C93.8023 58.8211 93.8916 58.7888 94.3617 58.5503C94.411 58.5256 94.4753 58.5346 94.5262 58.5616L96.2254 59.4683C96.257 59.4835 96.2923 59.4914 96.3281 59.4914C96.364 59.4914 96.3993 59.4835 96.4309 59.4683L103.058 56.0326C103.089 56.016 103.115 55.9925 103.133 55.9642C103.151 55.9359 103.16 55.9039 103.16 55.8713V49.0013C103.16 48.9683 103.151 48.9359 103.133 48.9071C103.115 48.8783 103.089 48.8542 103.057 48.8371L96.4325 45.4043C96.4012 45.3888 96.366 45.3807 96.3302 45.3807C96.2945 45.3807 96.2593 45.3888 96.228 45.4043L89.604 48.8378C89.5726 48.8549 89.5465 48.8788 89.5282 48.9074C89.51 48.936 89.5001 48.9683 89.4996 49.0013V55.8713C89.4996 55.9373 89.5405 55.9996 89.604 56.0303L91.4192 56.9731C92.4045 57.4148 93.0082 56.8943 93.0082 56.3708V49.5871C93.0082 49.4918 93.0942 49.4161 93.2003 49.4161H94.0411C94.1455 49.4161 94.2323 49.4918 94.2323 49.5871V56.3708C94.2323 57.5513 93.5167 58.2286 92.2701 58.2286C91.8868 58.2286 91.5854 58.2286 90.7437 57.8566L89.0061 56.9581C88.7947 56.8474 88.6193 56.6889 88.4975 56.4983C88.3756 56.3078 88.3114 56.0918 88.3114 55.8721V49.0021C88.3114 48.5558 88.5761 48.1396 89.0061 47.9176L95.6334 44.4773C95.847 44.3729 96.0863 44.3182 96.3294 44.3182C96.5725 44.3182 96.8118 44.3729 97.0254 44.4773L103.653 47.9176C104.082 48.1403 104.348 48.5566 104.348 49.0021V55.8721C104.348 56.0919 104.283 56.3077 104.161 56.4982C104.039 56.6887 103.864 56.8473 103.653 56.9581L97.0254 60.3946C96.8139 60.5048 96.5735 60.5625 96.329 60.5618ZM98.3772 55.8286C95.4756 55.8286 94.8686 54.6323 94.8686 53.6296C94.8688 53.5839 94.8891 53.5403 94.9251 53.5081C94.9611 53.4759 95.0098 53.4578 95.0606 53.4578H95.9173C95.9632 53.4577 96.0076 53.4723 96.0425 53.4989C96.0774 53.5256 96.1005 53.5626 96.1077 53.6033C96.2363 54.3871 96.6229 54.7823 98.3772 54.7823C99.7725 54.7823 100.367 54.4988 100.367 53.8328C100.367 53.4488 100.198 53.1646 98.029 52.9733C96.2154 52.8121 95.094 52.4528 95.094 51.1486C95.094 49.9478 96.2213 49.2308 98.11 49.2308C100.233 49.2308 101.284 49.8931 101.417 51.3136C101.419 51.3375 101.415 51.3615 101.407 51.3842C101.398 51.4069 101.384 51.4278 101.366 51.4456C101.348 51.4626 101.327 51.4763 101.302 51.4857C101.278 51.4951 101.252 51.5001 101.226 51.5003H100.365C100.322 51.5004 100.28 51.4871 100.246 51.4627C100.212 51.4383 100.188 51.4042 100.179 51.3661C99.972 50.5411 99.4711 50.2778 98.1092 50.2778C96.5853 50.2778 96.4083 50.7556 96.4083 51.1118C96.4083 51.5446 96.6171 51.6706 98.6753 51.9151C100.712 52.1573 101.68 52.4993 101.68 53.7856C101.68 55.0853 100.476 55.8286 98.3772 55.8286ZM82.6827 51.3226C82.9441 51.1853 83.1052 50.9348 83.1052 50.6626V48.8971C83.1052 48.6256 82.9449 48.3751 82.6827 48.2378L75.6989 44.5958C75.5697 44.5284 75.4231 44.4927 75.2737 44.4924C75.1243 44.4922 74.9775 44.5273 74.848 44.5943L67.8208 48.2386C67.6919 48.3056 67.5849 48.4018 67.5104 48.5176C67.436 48.6335 67.3967 48.7648 67.3966 48.8986V56.1856C67.3966 56.4593 67.5602 56.7128 67.8258 56.8486L74.8088 60.4223C75.066 60.5551 75.3816 60.5558 75.6413 60.4268L79.8647 58.3178C79.9304 58.2851 79.9853 58.2372 80.0236 58.1791C80.062 58.121 80.0825 58.0548 80.083 57.9873C80.0835 57.9197 80.064 57.8533 80.0265 57.7947C79.989 57.7362 79.9349 57.6876 79.8697 57.6541L72.799 54.0091C72.7341 53.9759 72.6802 53.9279 72.6426 53.8699C72.6051 53.812 72.5853 53.7461 72.5852 53.6791V51.3946C72.5852 51.2581 72.6662 51.1328 72.7973 51.0653L74.9992 49.9253C75.0635 49.8918 75.1365 49.8741 75.2108 49.8741C75.2852 49.8741 75.3582 49.8918 75.4225 49.9253L77.6244 51.0653C77.689 51.0985 77.7426 51.1465 77.78 51.2043C77.8174 51.2621 77.8372 51.3277 77.8373 51.3946V53.1916C77.8369 53.2588 77.8563 53.3249 77.8935 53.3831C77.9307 53.4414 77.9845 53.4898 78.0493 53.5233C78.1142 53.5568 78.1877 53.5743 78.2626 53.574C78.3374 53.5737 78.4107 53.5556 78.4752 53.5216L82.6827 51.3226ZM75.1695 50.9806C75.1944 50.9681 75.2224 50.9615 75.2509 50.9615C75.2794 50.9615 75.3074 50.9681 75.3323 50.9806L76.6808 51.6803C76.7309 51.7066 76.7618 51.7553 76.7618 51.8071V53.2058C76.7618 53.2583 76.7309 53.3063 76.6808 53.3326L75.3323 54.0316C75.3076 54.0445 75.2795 54.0513 75.2509 54.0513C75.2223 54.0513 75.1942 54.0445 75.1695 54.0316L73.8218 53.3326C73.7969 53.3198 73.7762 53.3014 73.7618 53.2791C73.7475 53.2569 73.7399 53.2316 73.74 53.2058V51.8071C73.74 51.7553 73.7709 51.7066 73.8218 51.6803L75.1695 50.9806ZM56.8824 53.8906C56.8824 53.9581 56.8423 54.0211 56.7763 54.0556L54.3632 55.3051C54.3311 55.322 54.2945 55.3309 54.2572 55.3309C54.2199 55.3309 54.1833 55.322 54.1511 55.3051L51.738 54.0556C51.7058 54.0388 51.6791 54.0147 51.6605 53.9858C51.6419 53.9568 51.632 53.924 51.632 53.8906V51.3871C51.632 51.3196 51.6729 51.2558 51.738 51.2213L54.1511 49.9703C54.1833 49.953 54.2201 49.9439 54.2576 49.9439C54.2951 49.9439 54.3319 49.953 54.3641 49.9703L56.778 51.2213C56.81 51.2384 56.8365 51.2627 56.8549 51.2917C56.8734 51.3208 56.8831 51.3536 56.8832 51.3871V53.8906H56.8824ZM57.5345 35.3536C57.4698 35.3218 57.397 35.3057 57.3233 35.3067C57.2496 35.3077 57.1774 35.3259 57.1138 35.3594C57.0503 35.393 56.9974 35.4407 56.9605 35.4981C56.9236 35.5554 56.9039 35.6203 56.9033 35.6866V45.3728C56.903 45.4195 56.8893 45.4654 56.8634 45.5059C56.8375 45.5464 56.8003 45.5801 56.7555 45.6038C56.7102 45.627 56.659 45.6392 56.6068 45.6392C56.5547 45.6392 56.5035 45.627 56.4582 45.6038L54.6981 44.6926C54.5692 44.6259 54.423 44.5908 54.2743 44.5908C54.1256 44.5908 53.9794 44.6259 53.8505 44.6926L46.8216 48.3361C46.6924 48.403 46.5852 48.4994 46.5106 48.6153C46.436 48.7313 46.3967 48.8629 46.3966 48.9968V56.2861C46.3966 56.5583 46.5586 56.8096 46.8208 56.9468L53.8497 60.5926C54.1119 60.7291 54.4359 60.7291 54.6989 60.5926L61.7295 56.9468C61.8584 56.8796 61.9654 56.7833 62.0398 56.6673C62.1142 56.5514 62.1535 56.4199 62.1537 56.2861V38.1158C62.1537 37.8398 61.9867 37.5848 61.7186 37.4498L57.5345 35.3536ZM32.7971 44.5553C32.926 44.4883 33.0723 44.453 33.2213 44.453C33.3702 44.453 33.5165 44.4883 33.6454 44.5553L40.6744 48.1981C40.9366 48.3346 41.0986 48.5866 41.0986 48.8588V56.1503C41.0986 56.4226 40.9366 56.6746 40.6744 56.8111L33.6463 60.4568C33.5171 60.5235 33.3707 60.5587 33.2217 60.5587C33.0727 60.5587 32.9263 60.5235 32.7971 60.4568L25.7707 56.8111C25.6418 56.7439 25.5348 56.6475 25.4604 56.5316C25.3859 56.4156 25.3467 56.2842 25.3465 56.1503V48.8581C25.3465 48.5866 25.5085 48.3346 25.7707 48.1981L32.7971 44.5553ZM20.0151 48.7981C20.0151 48.5236 19.8547 48.2716 19.5909 48.1358L12.5645 44.5036C12.4464 44.4421 12.3133 44.4079 12.177 44.4038H12.1044C11.9681 44.4079 11.835 44.4422 11.7169 44.5036L4.68966 48.1358C4.56038 48.203 4.45306 48.2996 4.37846 48.4158C4.30387 48.5321 4.26461 48.6639 4.26465 48.7981L4.27968 58.5781C4.27968 58.7146 4.359 58.8413 4.49177 58.9073C4.55534 58.9419 4.62826 58.9602 4.7026 58.9602C4.77694 58.9602 4.84987 58.9419 4.91344 58.9073L9.08839 56.7593C9.35224 56.6183 9.5134 56.3701 9.5134 56.0978V51.5288C9.5134 51.2558 9.67371 51.0046 9.93674 50.8681L11.7153 49.9486C11.8438 49.8807 11.9903 49.8452 12.1394 49.8458C12.2847 49.8458 12.4334 49.8788 12.5628 49.9486L14.3396 50.8681C14.6027 51.0046 14.7646 51.2558 14.7646 51.5288V56.0978C14.7646 56.3701 14.9275 56.6198 15.1897 56.7593L19.3646 58.9073C19.429 58.9404 19.5019 58.9577 19.576 58.9575C19.6502 58.9573 19.723 58.9397 19.7872 58.9064C19.8514 58.8731 19.9048 58.8253 19.942 58.7677C19.9792 58.71 19.9989 58.6447 19.9992 58.5781L20.0151 48.7981Z" fill="#83CD29"/>
</svg>
