<svg width="54" height="48" viewBox="0 0 54 48" fill="none" xmlns="http://www.w3.org/2000/svg">
<path d="M27.1766 12.3896C13.0903 12.3896 1.67017 17.5879 1.67017 24C1.67017 30.4121 13.0903 35.6104 27.1766 35.6104C41.2629 35.6104 52.6831 30.4121 52.6831 24C52.6831 17.5879 41.2629 12.3896 27.1766 12.3896ZM20.5397 26.262C19.931 26.7735 19.2551 26.9846 18.5107 27.2021C17.7663 27.42 16.819 27.375 15.6671 27.375H13.0565L12.333 31.125H9.28486L12.0048 18.375H17.8665C19.63 18.375 20.9163 18.8306 21.725 19.662C22.5336 20.4934 22.7766 21.6735 22.4543 23.1634C22.3211 23.7773 22.0969 24.348 21.7805 24.8565C21.4525 25.3812 21.0337 25.8556 20.5397 26.262ZM29.4369 27.375L30.6397 21.9675C30.7767 21.3345 30.7266 20.8643 30.489 20.6344C30.251 20.4041 29.745 20.25 28.9714 20.25H26.5541L24.9965 27.375H21.9721L24.6921 15H27.7164L26.9933 18.375H29.6874C31.3829 18.375 32.5519 18.6806 33.1952 19.2116C33.8386 19.7426 34.0315 20.4701 33.7743 21.6596L32.5089 27.375H29.4369ZM46.2449 23.1833C46.1121 23.7971 45.8875 24.3581 45.5714 24.8663C45.255 25.3751 44.8417 25.8405 44.3311 26.262C43.7224 26.7735 43.046 26.9846 42.302 27.2021C41.5581 27.42 40.6099 27.375 39.4581 27.375H36.8475L36.1244 31.125H33.0762L35.7958 18.375H41.6578C43.4213 18.375 44.7076 18.8306 45.5159 19.662C46.3238 20.4934 46.5672 21.6938 46.2449 23.1833ZM40.5026 20.25H38.4147L37.2762 25.5H39.1307C40.359 25.5 41.275 25.3913 41.8762 24.975C42.4782 24.5595 42.8836 23.9145 43.0944 22.9421C43.2965 22.008 43.2047 21.2794 42.8189 20.8954C42.4327 20.5114 41.6608 20.25 40.5026 20.25ZM16.7117 20.25H14.6234L13.4849 25.5H15.339C16.5676 25.5 17.4832 25.3913 18.0848 24.975C18.6864 24.5595 19.0922 23.9145 19.3027 22.9421C19.5047 22.008 19.4129 21.2794 19.0271 20.8954C18.6413 20.5114 17.8698 20.25 16.7117 20.25Z" fill="#6181B6"/>
</svg>
