<svg width="55" height="48" viewBox="0 0 55 48" fill="none" xmlns="http://www.w3.org/2000/svg">
<path d="M2.42507 16.8912C2.42507 16.8912 1.16131 16.0696 2.67974 14.9738L6.21509 12.1261C6.21509 12.1261 7.22793 11.1664 8.29797 12.0031L40.9356 34.2511V44.9198C40.9356 44.9198 40.9194 46.5953 38.5321 46.4108L2.42507 16.8912Z" fill="#2489CA"/>
<path d="M10.8389 23.7671L2.42511 30.6532C2.42511 30.6532 1.5609 31.2318 2.42511 32.2676L6.33119 35.4652C6.33119 35.4652 7.25887 36.3633 8.63076 35.3422L17.548 29.253L10.8389 23.7671Z" fill="#1070B3"/>
<path d="M25.6076 23.824L41.0353 13.2171L40.9355 2.60573C40.9355 2.60573 40.2767 0.289728 38.0786 1.4961L17.5479 18.319L25.6076 23.824Z" fill="#0877B9"/>
<path d="M38.5316 46.4241C39.4271 47.2502 40.5134 46.9791 40.5134 46.9791L52.536 41.6458C54.0754 40.7008 53.8599 39.529 53.8599 39.529V7.6746C53.8599 6.27397 52.2684 5.7906 52.2684 5.7906L41.8473 1.26772C39.5707 0.000595331 38.0786 1.49647 38.0786 1.49647C38.0786 1.49647 39.9962 0.252595 40.9355 2.60647V44.7253C40.9355 45.0152 40.8671 45.2991 40.7301 45.5556C40.4562 46.0551 39.8592 46.5193 38.4322 46.3247L38.5316 46.4241Z" fill="#3C99D4"/>
</svg>
