<?xml version="1.0" encoding="UTF-8"?>
<svg version="1.1" xmlns="http://www.w3.org/2000/svg" width="94" height="94">
<path d="M0 0 C5.22048824 4.850379 8.1876025 9.83944146 11.03125 16.3203125 C11.69063081 17.65726394 12.35485127 18.99188976 13.03125 20.3203125 C13.36125 20.3203125 13.69125 20.3203125 14.03125 20.3203125 C15.53069026 26.31807356 15.53069026 32.32255144 14.03125 38.3203125 C13.37125 38.3203125 12.71125 38.3203125 12.03125 38.3203125 C11.66773437 39.29871094 11.66773437 39.29871094 11.296875 40.296875 C6.96954537 51.58121919 0.07204732 60.92712956 -11.05078125 66.33203125 C-17.91880274 69.02408556 -24.54029941 69.46327424 -31.84375 69.3828125 C-32.6275 69.37830078 -33.41125 69.37378906 -34.21875 69.36914062 C-36.13545014 69.35745343 -38.05211048 69.33952158 -39.96875 69.3203125 C-39.96875 68.6603125 -39.96875 68.0003125 -39.96875 67.3203125 C-40.91234375 66.90072266 -40.91234375 66.90072266 -41.875 66.47265625 C-51.89972611 61.77734025 -58.26810951 56.41864664 -62.96875 46.3203125 C-63.27683594 45.66417969 -63.58492187 45.00804687 -63.90234375 44.33203125 C-67.5660221 36.14572604 -68.48960874 27.22924607 -65.71875 18.5703125 C-65.16445432 17.14203433 -64.58145062 15.72452765 -63.96875 14.3203125 C-63.67871094 13.63195312 -63.38867188 12.94359375 -63.08984375 12.234375 C-58.41349604 2.02076201 -50.43879635 -4.87723665 -39.88671875 -8.8359375 C-25.29740021 -13.05453563 -11.49430704 -9.80665085 0 0 Z M13.03125 26.3203125 C13.03125 28.3003125 13.03125 30.2803125 13.03125 32.3203125 C13.36125 32.3203125 13.69125 32.3203125 14.03125 32.3203125 C14.03125 30.3403125 14.03125 28.3603125 14.03125 26.3203125 C13.70125 26.3203125 13.37125 26.3203125 13.03125 26.3203125 Z " fill="#20A4F5" transform="translate(74.96875,17.6796875)"/>
<path d="M0 0 C1.98 0 3.96 0 6 0 C7.49944026 5.99776106 7.49944026 12.00223894 6 18 C5.34 18 4.68 18 4 18 C3.75765625 18.65226562 3.5153125 19.30453125 3.265625 19.9765625 C-1.06170463 31.26090669 -7.95920268 40.60681706 -19.08203125 46.01171875 C-25.95005274 48.70377306 -32.57154941 49.14296174 -39.875 49.0625 C-40.65875 49.05798828 -41.4425 49.05347656 -42.25 49.04882812 C-44.16670014 49.03714093 -46.08336048 49.01920908 -48 49 C-48 48.34 -48 47.68 -48 47 C-48.6290625 46.72027344 -49.258125 46.44054687 -49.90625 46.15234375 C-59.93097611 41.45702775 -66.29935951 36.09833414 -71 26 C-71.30808594 25.34386719 -71.61617187 24.68773438 -71.93359375 24.01171875 C-74.31584056 18.68870793 -75.12581322 14.57481589 -75.0625 8.75 C-75.04896484 7.13351563 -75.04896484 7.13351563 -75.03515625 5.484375 C-75.02355469 4.66453125 -75.01195313 3.8446875 -75 3 C-74.01 3.495 -74.01 3.495 -73 4 C-71.68 3.67 -70.36 3.34 -69 3 C-68.67 7.62 -68.34 12.24 -68 17 C-66.02 17 -64.04 17 -62 17 C-62 14.03 -62 11.06 -62 8 C-61.34 8.33 -60.68 8.66 -60 9 C-59.40644386 11.64860427 -59.25790731 14.29197322 -59 17 C-56.69 17 -54.38 17 -52 17 C-52.04125 16.01 -52.0825 15.02 -52.125 14 C-52.1423348 9.76164134 -51.14191162 6.06806015 -50 2 C-49.34 2 -48.68 2 -48 2 C-47.3299166 4.12392506 -46.66403203 6.24917524 -46 8.375 C-45.62875 9.55835938 -45.2575 10.74171875 -44.875 11.9609375 C-44 15 -44 15 -44 17 C-42.02 17 -40.04 17 -38 17 C-37.34 14.03 -36.68 11.06 -36 8 C-35.34 8 -34.68 8 -34 8 C-33.01 10.97 -32.02 13.94 -31 17 C-29.35 17.33 -27.7 17.66 -26 18 C-24.68 12.72 -23.36 7.44 -22 2 C-21.34 2 -20.68 2 -20 2 C-19.49363393 3.74816858 -18.99515381 5.49862263 -18.5 7.25 C-18.2215625 8.22453125 -17.943125 9.1990625 -17.65625 10.203125 C-17 13 -17 13 -17 17 C-15.02 17 -13.04 17 -11 17 C-10.34 14.69 -9.68 12.38 -9 10 C-8.67 10 -8.34 10 -8 10 C-8 12.31 -8 14.62 -8 17 C-6.02 17 -4.04 17 -2 17 C-1.93941406 16.10796875 -1.87882812 15.2159375 -1.81640625 14.296875 C-1.69072266 12.54117188 -1.69072266 12.54117188 -1.5625 10.75 C-1.44068359 9.00976562 -1.44068359 9.00976562 -1.31640625 7.234375 C-1.06752213 4.69022624 -0.71885058 2.44046752 0 0 Z M5 6 C5 7.98 5 9.96 5 12 C5.33 12 5.66 12 6 12 C6 10.02 6 8.04 6 6 C5.67 6 5.34 6 5 6 Z " fill="#1251B8" transform="translate(83,38)"/>
<path d="M0 0 C5.80512153 0.33637153 5.80512153 0.33637153 8.02734375 2.55859375 C8.97609375 2.55859375 9.92484375 2.55859375 10.90234375 2.55859375 C14.02734375 2.55859375 14.02734375 2.55859375 16.08984375 3.62109375 C18.05083563 4.84574518 18.05083563 4.84574518 20.33984375 3.80859375 C23.60750341 3.50462541 24.10888747 4.04414207 26.58984375 6.05859375 C29.97574663 9.2021218 31.85076553 12.51637705 34.02734375 16.55859375 C35.01734375 17.21859375 36.00734375 17.87859375 37.02734375 18.55859375 C36.03734375 18.55859375 35.04734375 18.55859375 34.02734375 18.55859375 C34.02734375 19.54859375 34.02734375 20.53859375 34.02734375 21.55859375 C36.33734375 22.21859375 38.64734375 22.87859375 41.02734375 23.55859375 C41.02734375 24.87859375 41.02734375 26.19859375 41.02734375 27.55859375 C40.03734375 27.55859375 39.04734375 27.55859375 38.02734375 27.55859375 C37.36734375 33.16859375 36.70734375 38.77859375 36.02734375 44.55859375 C34.04734375 44.55859375 32.06734375 44.55859375 30.02734375 44.55859375 C29.53234375 41.58859375 29.53234375 41.58859375 29.02734375 38.55859375 C28.36734375 40.53859375 27.70734375 42.51859375 27.02734375 44.55859375 C25.04734375 44.55859375 23.06734375 44.55859375 21.02734375 44.55859375 C19.54234375 37.13359375 19.54234375 37.13359375 18.02734375 29.55859375 C15.38734375 29.22859375 12.74734375 28.89859375 10.02734375 28.55859375 C9.69734375 30.86859375 9.36734375 33.17859375 9.02734375 35.55859375 C7.02734375 32.55859375 7.02734375 32.55859375 6.02734375 29.55859375 C4.04734375 29.55859375 2.06734375 29.55859375 0.02734375 29.55859375 C-0.96265625 33.02359375 -0.96265625 33.02359375 -1.97265625 36.55859375 C-3.8565741 33.29313614 -4.46553592 30.27747614 -4.97265625 26.55859375 C-6.62265625 26.55859375 -8.27265625 26.55859375 -9.97265625 26.55859375 C-9.41015625 24.68359375 -9.41015625 24.68359375 -7.97265625 22.55859375 C-4.34765625 21.30859375 -4.34765625 21.30859375 -0.97265625 20.55859375 C-3.28265625 20.22859375 -5.59265625 19.89859375 -7.97265625 19.55859375 C-9.20293383 15.86776101 -8.57472279 14.75971178 -7.22265625 11.18359375 C-6.70445313 9.77980469 -6.70445313 9.77980469 -6.17578125 8.34765625 C-2.93311447 0.83056509 -2.93311447 0.83056509 0 0 Z " fill="#2175DD" transform="translate(44.97265625,10.44140625)"/>
<path d="M0 0 C4.61794632 4.35430666 7.68324828 8.31704859 9.99609375 14.25 C9.50109375 15.735 9.50109375 15.735 8.99609375 17.25 C6.55859375 16.0625 6.55859375 16.0625 3.99609375 14.25 C3.43359375 12 3.43359375 12 2.99609375 9.25 C0.43450185 3.93706864 -2.03362324 0.49589911 -7.00390625 -2.75 C-9.61488668 -2.51129575 -9.61488668 -2.51129575 -12.00390625 -1.75 C-13.33723958 -2.41666667 -14.67057292 -3.08333333 -16.00390625 -3.75 C-18.33594437 -3.8277346 -20.67229684 -3.83967728 -23.00390625 -3.75 C-23.49890625 -5.235 -23.49890625 -5.235 -24.00390625 -6.75 C-28.1801976 -6.99154451 -28.1801976 -6.99154451 -32.00390625 -5.75 C-35.07418317 -1.21910591 -36.80440522 3.93431648 -38.00390625 9.25 C-38.99390625 8.92 -39.98390625 8.59 -41.00390625 8.25 C-40.49938406 4.50212088 -39.92231392 0.92363066 -39.00390625 -2.75 C-40.65390625 1.21 -42.30390625 5.17 -44.00390625 9.25 C-47.96390625 9.25 -51.92390625 9.25 -56.00390625 9.25 C-56.00390625 9.91 -56.00390625 10.57 -56.00390625 11.25 C-55.24464844 11.21519531 -54.48539063 11.18039063 -53.703125 11.14453125 C-52.21232422 11.10392578 -52.21232422 11.10392578 -50.69140625 11.0625 C-49.70527344 11.02769531 -48.71914063 10.99289063 -47.703125 10.95703125 C-45.00390625 11.25 -45.00390625 11.25 -42.00390625 14.25 C-47.61390625 15.24 -53.22390625 16.23 -59.00390625 17.25 C-59.00390625 16.59 -59.00390625 15.93 -59.00390625 15.25 C-59.66390625 15.25 -60.32390625 15.25 -61.00390625 15.25 C-61.33390625 16.57 -61.66390625 17.89 -62.00390625 19.25 C-62.66390625 19.25 -63.32390625 19.25 -64.00390625 19.25 C-64.00390625 19.91 -64.00390625 20.57 -64.00390625 21.25 C-64.66390625 21.25 -65.32390625 21.25 -66.00390625 21.25 C-62.81946597 8.51223888 -56.90074922 0.70965571 -45.78515625 -6.26953125 C-30.49027937 -14.41104577 -12.77270679 -11.15433263 0 0 Z " fill="#9DF7FE" transform="translate(75.00390625,17.75)"/>
<path d="M0 0 C6.0546875 -0.1953125 6.0546875 -0.1953125 8 0 C8.66 0.66 9.32 1.32 10 2 C10.94875 2 11.8975 2 12.875 2 C16 2 16 2 18.0625 3.0625 C20.02349188 4.28715143 20.02349188 4.28715143 22.3125 3.25 C25 3 25 3 26.76953125 4.12109375 C29.92253535 6.782893 32.72980164 9.52793192 35 13 C34 15 34 15 33 16 C30.19972835 16.07369136 27.42442727 16.09223248 24.625 16.0625 C23.84382813 16.05798828 23.06265625 16.05347656 22.2578125 16.04882812 C20.17184896 16.03632663 18.08591948 16.01844133 16 16 C15.01 16 14.02 16 13 16 C6.66666667 16 0.33333333 16 -6 16 C-5.5132707 11.42922022 -4.80628346 8.01047244 -2.4375 4.0625 C-1.98246094 3.29035156 -1.52742188 2.51820312 -1.05859375 1.72265625 C-0.70925781 1.15417969 -0.35992187 0.58570313 0 0 Z " fill="#16C1FD" transform="translate(43,11)"/>
<path d="M0 0 C1.98 0 3.96 0 6 0 C7.49944026 5.99776106 7.49944026 12.00223894 6 18 C5.34 18 4.68 18 4 18 C3.75765625 18.65226562 3.5153125 19.30453125 3.265625 19.9765625 C-0.97208684 31.02721108 -7.12048739 38.46877409 -17 45 C-18.485 45.495 -18.485 45.495 -20 46 C-20 45.01 -20 44.02 -20 43 C-17 41 -17 41 -14.625 40.25 C-11.09002276 38.5666775 -9.40702189 36.0404487 -7 33 C-6.01 32.34 -5.02 31.68 -4 31 C-3.42006301 28.80545319 -3.42006301 28.80545319 -3.3125 26.375 C-3.24675781 25.55773437 -3.18101563 24.74046875 -3.11328125 23.8984375 C-3.07589844 23.27195312 -3.03851563 22.64546875 -3 22 C-3.66 22 -4.32 22 -5 22 C-5 22.66 -5 23.32 -5 24 C-10.54152641 24.94323854 -15.22209771 25 -21 25 C-21 19.06 -21 13.12 -21 7 C-21.66 7 -22.32 7 -23 7 C-22.67 5.35 -22.34 3.7 -22 2 C-21.34 2 -20.68 2 -20 2 C-19.49363393 3.74816858 -18.99515381 5.49862263 -18.5 7.25 C-18.2215625 8.22453125 -17.943125 9.1990625 -17.65625 10.203125 C-17 13 -17 13 -17 17 C-15.02 17 -13.04 17 -11 17 C-10.34 14.69 -9.68 12.38 -9 10 C-8.67 10 -8.34 10 -8 10 C-8 12.31 -8 14.62 -8 17 C-6.02 17 -4.04 17 -2 17 C-1.90912109 15.66195312 -1.90912109 15.66195312 -1.81640625 14.296875 C-1.73261719 13.12640625 -1.64882812 11.9559375 -1.5625 10.75 C-1.48128906 9.58984375 -1.40007812 8.4296875 -1.31640625 7.234375 C-1.06752213 4.69022624 -0.71885058 2.44046752 0 0 Z M5 6 C5 7.98 5 9.96 5 12 C5.33 12 5.66 12 6 12 C6 10.02 6 8.04 6 6 C5.67 6 5.34 6 5 6 Z " fill="#1659B6" transform="translate(83,38)"/>
<path d="M0 0 C1.98 0 3.96 0 6 0 C6.66 1.98 7.32 3.96 8 6 C8.66 4.02 9.32 2.04 10 0 C12.8125 -0.3125 12.8125 -0.3125 16 0 C17.875 2.5 17.875 2.5 19 5 C19.33 3.35 19.66 1.7 20 0 C21.98 0 23.96 0 26 0 C25.71561048 1.89693861 25.42216208 3.79252027 25.125 5.6875 C24.96257813 6.74324219 24.80015625 7.79898438 24.6328125 8.88671875 C24.04106931 11.79794914 23.1968194 14.28955607 22 17 C20.35 17 18.7 17 17 17 C14.96564469 13.27034861 14 11.33094958 14 7 C13.34 7 12.68 7 12 7 C11.34 9.97 10.68 12.94 10 16 C8.02 16 6.04 16 4 16 C3.32815382 13.89748139 2.66269032 11.79292237 2 9.6875 C1.443125 7.92986328 1.443125 7.92986328 0.875 6.13671875 C0 3 0 3 0 0 Z " fill="#C4C6D0" transform="translate(35,39)"/>
<path d="M0 0 C3.96 0 7.92 0 12 0 C12.33 0.99 12.66 1.98 13 3 C13.66 2.01 14.32 1.02 15 0 C17.625 -0.1875 17.625 -0.1875 20 0 C19.42978066 5.3503559 18.79265639 10.67787852 18 16 C15.69 16 13.38 16 11 16 C10.34 13.36 9.68 10.72 9 8 C8.67 10.64 8.34 13.28 8 16 C6.02 16 4.04 16 2 16 C1.34 10.72 0.68 5.44 0 0 Z " fill="#C6C8D1" transform="translate(13,39)"/>
<path d="M0 0 C5.61 0 11.22 0 17 0 C18.09011786 5.45058931 17.7906471 8.83022853 16 14 C14.1875 16.625 14.1875 16.625 12 18 C8.58421986 18.0853945 7.35537272 17.33446844 4.875 15 C2.0016108 10.40257728 0 5.46528247 0 0 Z " fill="#106BC8" transform="translate(37,67)"/>
<path d="M0 0 C4.61794632 4.35430666 7.68324828 8.31704859 9.99609375 14.25 C9.50109375 15.735 9.50109375 15.735 8.99609375 17.25 C6.55859375 16.0625 6.55859375 16.0625 3.99609375 14.25 C3.43359375 12 3.43359375 12 2.99609375 9.25 C0.43450185 3.93706864 -2.03362324 0.49589911 -7.00390625 -2.75 C-9.61488668 -2.51129575 -9.61488668 -2.51129575 -12.00390625 -1.75 C-14.00390625 -2.75 -14.00390625 -2.75 -16.00390625 -3.75 C-18.33594437 -3.8277346 -20.67229684 -3.83967728 -23.00390625 -3.75 C-23.33390625 -4.74 -23.66390625 -5.73 -24.00390625 -6.75 C-28.1801976 -6.99154451 -28.1801976 -6.99154451 -32.00390625 -5.75 C-35.07418317 -1.21910591 -36.80440522 3.93431648 -38.00390625 9.25 C-38.99390625 8.92 -39.98390625 8.59 -41.00390625 8.25 C-40.36547146 2.9297101 -39.41361145 -1.93058959 -37.00390625 -6.75 C-38.32390625 -7.08 -39.64390625 -7.41 -41.00390625 -7.75 C-27.61345343 -15.08928622 -10.74301237 -9.38181197 0 0 Z " fill="#55D1FD" transform="translate(75.00390625,17.75)"/>
<path d="M0 0 C1.65 0 3.3 0 5 0 C5.66 1.32 6.32 2.64 7 4 C7.33 2.68 7.66 1.36 8 0 C9.98 0 11.96 0 14 0 C14.33 1.65 14.66 3.3 15 5 C15.33 3.35 15.66 1.7 16 0 C17.32 0 18.64 0 20 0 C19.34 5.28 18.68 10.56 18 16 C16.02 16 14.04 16 12 16 C11.67 14.02 11.34 12.04 11 10 C10.34 11.98 9.68 13.96 9 16 C7.02 16 5.04 16 3 16 C2.49595192 13.89679937 1.99689492 11.79240209 1.5 9.6875 C1.08234375 7.92986328 1.08234375 7.92986328 0.65625 6.13671875 C0 3 0 3 0 0 Z " fill="#C4C6D2" transform="translate(63,39)"/>
<path d="M0 0 C14.55219807 -0.58295155 14.55219807 -0.58295155 19 3 C19.875 5.6875 19.875 5.6875 20 8 C20.99 7.67 21.98 7.34 23 7 C23 5.68 23 4.36 23 3 C23.66 3 24.32 3 25 3 C25 4.98 25 6.96 25 9 C26.65 9 28.3 9 30 9 C26.00439392 11.83022097 22.57262677 10.76210446 18 10 C17.67 12.31 17.34 14.62 17 17 C15 14 15 14 14 11 C12.02 11 10.04 11 8 11 C7.34 13.31 6.68 15.62 6 18 C4.11608215 14.73454239 3.50712033 11.71888239 3 8 C1.35 8 -0.3 8 -2 8 C-1.4375 6.125 -1.4375 6.125 0 4 C3.625 2.75 3.625 2.75 7 2 C4.69 1.67 2.38 1.34 0 1 C0 0.67 0 0.34 0 0 Z " fill="#2386E3" transform="translate(37,29)"/>
<path d="M0 0 C2.08450717 0.2831556 4.16758367 0.57685669 6.25 0.875 C7.99023438 1.11863281 7.99023438 1.11863281 9.765625 1.3671875 C12.58193313 1.91820431 14.55217557 2.55796482 17 4 C17 3.34 17 2.68 17 2 C20.36720387 3.39332574 21.9859524 4.9789286 24 8 C23 10 23 10 22 11 C19.19972835 11.07369136 16.42442727 11.09223248 13.625 11.0625 C12.45324219 11.05573242 12.45324219 11.05573242 11.2578125 11.04882812 C9.17184896 11.03632663 7.08591948 11.01844133 5 11 C4.01 11 3.02 11 2 11 C-0.33333333 11 -2.66666667 11 -5 11 C-3.625 9 -3.625 9 -2 7 C-1.34 7 -0.68 7 0 7 C0 4.69 0 2.38 0 0 Z " fill="#178FED" transform="translate(54,16)"/>
<path d="M0 0 C0.99 0.495 0.99 0.495 2 1 C4.09821215 0.60061233 4.09821215 0.60061233 6 0 C5.84015625 0.57363281 5.6803125 1.14726563 5.515625 1.73828125 C3.8672639 8.96859242 5.31004245 15.22707117 8 22 C8.66 21.34 9.32 20.68 10 20 C12.475 20.99 12.475 20.99 15 22 C14.505 22.45375 14.01 22.9075 13.5 23.375 C11.77390663 24.87635519 11.77390663 24.87635519 12 27 C12.66 27 13.32 27 14 27 C14.391875 27.86625 14.78375 28.7325 15.1875 29.625 C16.59887762 32.25308247 17.78017054 34.05006886 19.6875 36.25 C22 39 22 39 22 41 C15.00551623 39.03280144 9.68903627 33.68851576 6.1875 27.5 C5.43452985 26.01180647 4.7038391 24.51204978 4 23 C3.69191406 22.34386719 3.38382813 21.68773438 3.06640625 21.01171875 C0.68415944 15.68870793 -0.12581322 11.57481589 -0.0625 5.75 C-0.04896484 4.13351563 -0.04896484 4.13351563 -0.03515625 2.484375 C-0.02355469 1.66453125 -0.01195312 0.8446875 0 0 Z " fill="#1E4CA3" transform="translate(8,41)"/>
<path d="M0 0 C4.62 0 9.24 0 14 0 C12.502178 3.74455499 11.42500578 6.12771236 9.125 9.25 C8.63257812 9.93578125 8.14015625 10.6215625 7.6328125 11.328125 C5.77857706 13.22672014 4.58941855 13.61887346 2 14 C2 14.99 2 15.98 2 17 C-0.95664519 18.4783226 -3.74229737 18.06032783 -7 18 C-6.49339844 16.93072266 -6.49339844 16.93072266 -5.9765625 15.83984375 C-3.54273046 10.61343563 -1.3699042 5.60415357 0 0 Z " fill="#1568BE" transform="translate(61,67)"/>
<path d="M0 0 C0.33 0.66 0.66 1.32 1 2 C7.27 2.33 13.54 2.66 20 3 C20 3.66 20 4.32 20 5 C18.35 5 16.7 5 15 5 C15 5.66 15 6.32 15 7 C13.329375 7.2165625 13.329375 7.2165625 11.625 7.4375 C8.17857953 7.78372035 8.17857953 7.78372035 6 9 C5.34 8.67 4.68 8.34 4 8 C4.33 9.98 4.66 11.96 5 14 C3.35 14 1.7 14 0 14 C0 12.02 0 10.04 0 8 C-4.52150975 6.28878246 -8.55617153 5.64776388 -13.375 5.375 C-14.62023438 5.30023437 -15.86546875 5.22546875 -17.1484375 5.1484375 C-18.08945312 5.09945313 -19.03046875 5.05046875 -20 5 C-20 4.34 -20 3.68 -20 3 C-13.4 3 -6.8 3 0 3 C0 2.01 0 1.02 0 0 Z " fill="#1866D3" transform="translate(56,24)"/>
<path d="M0 0 C4.11990764 -0.73461588 7.15470834 -0.74373646 11 1 C14.79134069 5.98047522 16.84682375 12.18210543 19 18 C17.53434111 17.72457921 16.07123865 17.43552711 14.609375 17.140625 C13.79436523 16.98110352 12.97935547 16.82158203 12.13964844 16.65722656 C10 16 10 16 8.25 13.75 C7.63125 12.38875 7.63125 12.38875 7 11 C6.12782108 9.9384489 5.23046268 8.89721883 4.3125 7.875 C2 5 2 5 2 2 C1.34 2 0.68 2 0 2 C0 1.34 0 0.68 0 0 Z " fill="#1460BF" transform="translate(20,66)"/>
<path d="M0 0 C0.29686516 5.0467077 0.0926459 7.94756744 -3 12 C-4.62553283 13.70680947 -6.29115995 15.37660195 -8 17 C-8.556875 17.598125 -9.11375 18.19625 -9.6875 18.8125 C-11 20 -11 20 -13 20 C-10.97099431 15.79028725 -8.49892625 11.94567303 -6 8 C-10.29 8 -14.58 8 -19 8 C-19 6.68 -19 5.36 -19 4 C-11.08 3.505 -11.08 3.505 -3 3 C-3 2.34 -3 1.68 -3 1 C-1 0 -1 0 0 0 Z " fill="#1C4CA5" transform="translate(81,59)"/>
<path d="M0 0 C1.24546405 2.49092811 0.7767578 3.41080733 0 6 C0.75925781 5.96519531 1.51851562 5.93039063 2.30078125 5.89453125 C3.79158203 5.85392578 3.79158203 5.85392578 5.3125 5.8125 C6.29863281 5.77769531 7.28476562 5.74289063 8.30078125 5.70703125 C11 6 11 6 14 9 C8.39 9.99 2.78 10.98 -3 12 C-3 11.34 -3 10.68 -3 10 C-3.66 10 -4.32 10 -5 10 C-5.33 11.32 -5.66 12.64 -6 14 C-6.66 14 -7.32 14 -8 14 C-8 14.66 -8 15.32 -8 16 C-8.66 16 -9.32 16 -10 16 C-7.74193548 7.61290323 -7.74193548 7.61290323 -6 5 C-4.68352881 4.30062468 -3.34977849 3.63270867 -2 3 C-1.34 2.01 -0.68 1.02 0 0 Z " fill="#77D6FA" transform="translate(19,23)"/>
<path d="M0 0 C0 0.99 0 1.98 0 3 C-0.99 3 -1.98 3 -3 3 C-3 3.66 -3 4.32 -3 5 C-3.66 5 -4.32 5 -5 5 C-5 5.66 -5 6.32 -5 7 C-6.98 7 -8.96 7 -11 7 C-11.33 8.32 -11.66 9.64 -12 11 C-12 9.68 -12 8.36 -12 7 C-13.65 7 -15.3 7 -17 7 C-17.33 7.99 -17.66 8.98 -18 10 C-18.99 10.33 -19.98 10.66 -21 11 C-21 9.68 -21 8.36 -21 7 C-20.34 7 -19.68 7 -19 7 C-19 6.34 -19 5.68 -19 5 C-18.34 5 -17.68 5 -17 5 C-16.67 3.68 -16.34 2.36 -16 1 C-15.01 1.33 -14.02 1.66 -13 2 C-10.99716511 1.51544317 -8.99471749 1.02668433 -7.0078125 0.48046875 C-4.62979646 -0.08858956 -2.43536832 -0.15221052 0 0 Z " fill="#2FB4F4" transform="translate(30,32)"/>
<path d="M0 0 C0.99 0.495 0.99 0.495 2 1 C4.09821215 0.60061233 4.09821215 0.60061233 6 0 C5.83886719 0.57234375 5.67773438 1.1446875 5.51171875 1.734375 C4.01499921 8.36107219 5.1327027 14.58116554 7 21 C5.35 20.67 3.7 20.34 2 20 C-0.07965362 13.24112575 -0.21133202 7.04440079 0 0 Z " fill="#3874BB" transform="translate(8,41)"/>
<path d="M0 0 C0.33 0.66 0.66 1.32 1 2 C0.525625 2.928125 0.05125 3.85625 -0.4375 4.8125 C-1.99823054 7.9963903 -2.46754386 9.54017546 -2 13 C-1.01 14.485 -1.01 14.485 0 16 C0 16.99 0 17.98 0 19 C-1.98 19.33 -3.96 19.66 -6 20 C-6.33 19.01 -6.66 18.02 -7 17 C-10.63 16.67 -14.26 16.34 -18 16 C-18 15.34 -18 14.68 -18 14 C-14.04 14 -10.08 14 -6 14 C-5.566875 12.4325 -5.13375 10.865 -4.6875 9.25 C-3.66248361 5.54041689 -2.47186455 2.96346786 0 0 Z " fill="#32ABEA" transform="translate(37,13)"/>
<path d="M0 0 C0.33 0 0.66 0 1 0 C0.69015721 9.45020522 -3.25421523 18.25421523 -10 25 C-18.45616264 31.48538755 -18.45616264 31.48538755 -23 33 C-23 32.01 -23 31.02 -23 30 C-20 28 -20 28 -17.625 27.25 C-14.09002276 25.5666775 -12.40702189 23.0404487 -10 20 C-9.01 19.34 -8.02 18.68 -7 18 C-5.7811879 14.44327821 -5.7811879 14.44327821 -5 11 C-4.34 11 -3.68 11 -3 11 C-3.04125 10.21625 -3.0825 9.4325 -3.125 8.625 C-3 6 -3 6 -1 4 C-0.3574765 1.93125966 -0.3574765 1.93125966 0 0 Z " fill="#4972A5" transform="translate(86,51)"/>
<path d="M0 0 C0.33 0.66 0.66 1.32 1 2 C-0.98 2.33 -2.96 2.66 -5 3 C-5.0825 3.763125 -5.165 4.52625 -5.25 5.3125 C-6.28777865 10.4149117 -8.14287032 15.1455494 -10 20 C-10.99 19.67 -11.98 19.34 -13 19 C-12.36156521 13.6797101 -11.4097052 8.81941041 -9 4 C-10.32 3.67 -11.64 3.34 -13 3 C-10.03821227 1.32889958 -7.62928808 0.67317248 -4.25 0.375 C-3.05117188 0.26285156 -3.05117188 0.26285156 -1.828125 0.1484375 C-1.22484375 0.09945313 -0.6215625 0.05046875 0 0 Z " fill="#5EC9F6" transform="translate(47,7)"/>
<path d="M0 0 C4.29 0.66 8.58 1.32 13 2 C13.33 2.99 13.66 3.98 14 5 C12.88625 4.938125 11.7725 4.87625 10.625 4.8125 C8.830625 4.9053125 8.830625 4.9053125 7 5 C6.01 6.485 6.01 6.485 5 8 C4.01 7.34 3.02 6.68 2 6 C1.67 7.65 1.34 9.3 1 11 C-0.98 11 -2.96 11 -5 11 C-3.625 9 -3.625 9 -2 7 C-1.34 7 -0.68 7 0 7 C0 4.69 0 2.38 0 0 Z " fill="#1DAAF7" transform="translate(54,16)"/>
<path d="M0 0 C1.98 0 3.96 0 6 0 C7.49944026 5.99776106 7.49944026 12.00223894 6 18 C5.67 18 5.34 18 5 18 C5 16.35 5 14.7 5 13 C4.34 13 3.68 13 3 13 C2.67 14.32 2.34 15.64 2 17 C1.34 16.67 0.68 16.34 0 16 C0.51613687 13.41931567 1.03503189 10.86305714 1.6875 8.3125 C1.790625 7.549375 1.89375 6.78625 2 6 C1.34 5.34 0.68 4.68 0 4 C0 2.68 0 1.36 0 0 Z M5 6 C5 7.98 5 9.96 5 12 C5.33 12 5.66 12 6 12 C6 10.02 6 8.04 6 6 C5.67 6 5.34 6 5 6 Z " fill="#3068BD" transform="translate(83,38)"/>
<path d="M0 0 C1.32 0 2.64 0 4 0 C4.125 2.875 4.125 2.875 4 6 C3.34 6.66 2.68 7.32 2 8 C1.3574765 10.06874034 1.3574765 10.06874034 1 12 C1.66 12 2.32 12 3 12 C2.34 14.64 1.68 17.28 1 20 C0.34 20 -0.32 20 -1 20 C-1.66 19.34 -2.32 18.68 -3 18 C-3 17.01 -3 16.02 -3 15 C-3.99 14.34 -4.98 13.68 -6 13 C-4.35 13 -2.7 13 -1 13 C-0.67 8.71 -0.34 4.42 0 0 Z " fill="#2C59AC" transform="translate(82,42)"/>
<path d="M0 0 C0 0.66 0 1.32 0 2 C0.66 2.33 1.32 2.66 2 3 C0.91796875 4.51953125 0.91796875 4.51953125 -1 6 C-4.13671875 6.07421875 -4.13671875 6.07421875 -7.6875 5.6875 C-9.45673828 5.50767578 -9.45673828 5.50767578 -11.26171875 5.32421875 C-12.16535156 5.21722656 -13.06898437 5.11023438 -14 5 C-14 3.68 -14 2.36 -14 1 C-4.58997722 -0.14806378 -4.58997722 -0.14806378 0 0 Z " fill="#1148A9" transform="translate(76,62)"/>
<path d="M0 0 C0.59167969 0.0721875 1.18335937 0.144375 1.79296875 0.21875 C6.75852197 0.80523908 6.75852197 0.80523908 11.75 1 C14 1 14 1 16.5625 1.625 C19.43723921 2.06726757 20.58094287 1.52311004 23 0 C23 0.99 23 1.98 23 3 C24.65 3 26.3 3 28 3 C28 3.33 28 3.66 28 4 C22.98391475 5.0176403 18.21391694 5.11856434 13.125 5.0625 C12.34125 5.05798828 11.5575 5.05347656 10.75 5.04882812 C8.83329986 5.03714093 6.91663952 5.01920908 5 5 C5 4.34 5 3.68 5 3 C2.525 2.01 2.525 2.01 0 1 C0 0.67 0 0.34 0 0 Z " fill="#235AAD" transform="translate(30,82)"/>
<path d="M0 0 C1.98 0 3.96 0 6 0 C7 3 8 6 9 9 C6.69 9.33 4.38 9.66 2 10 C1.34 6.7 0.68 3.4 0 0 Z " fill="#C4C9D7" transform="translate(35,39)"/>
<path d="M0 0 C2.49505962 2.49505962 2.35948376 3.67328888 2.625 7.125 C2.69976562 8.03507812 2.77453125 8.94515625 2.8515625 9.8828125 C2.92503906 10.93082031 2.92503906 10.93082031 3 12 C4.65 12 6.3 12 8 12 C7.01 13.485 7.01 13.485 6 15 C5.60986284 16.9896995 5.26797351 18.99019869 5 21 C1.62189063 18.38964276 0.63384368 15.07262778 0 11 C-0.15328402 7.32612828 -0.11960153 3.67442468 0 0 Z " fill="#1F50AA" transform="translate(12,43)"/>
<path d="M0 0 C0.99 0.33 1.98 0.66 3 1 C2.73445313 1.51949219 2.46890625 2.03898438 2.1953125 2.57421875 C0.29301903 6.33020694 -1.51959705 10.05225879 -3 14 C-4.65 14 -6.3 14 -8 14 C-8 13.34 -8 12.68 -8 12 C-7.34 12 -6.68 12 -6 12 C-5.938125 11.13375 -5.87625 10.2675 -5.8125 9.375 C-4.76877344 5.03952044 -3.00721829 3.23854277 0 0 Z " fill="#6EEEFE" transform="translate(34,13)"/>
<path d="M0 0 C2.64 0 5.28 0 8 0 C7.67 0.99 7.34 1.98 7 3 C5.9171875 3.37125 5.9171875 3.37125 4.8125 3.75 C0.78819061 5.53858195 -1.33661409 8.57695419 -4 12 C-5 9 -5 9 -4.00390625 6.73828125 C-3.52824219 5.93777344 -3.05257812 5.13726562 -2.5625 4.3125 C-2.08941406 3.50425781 -1.61632813 2.69601563 -1.12890625 1.86328125 C-0.75636719 1.24839844 -0.38382813 0.63351562 0 0 Z " fill="#25E0FE" transform="translate(43,11)"/>
<path d="M0 0 C0.99 0.33 1.98 0.66 3 1 C3 1.66 3 2.32 3 3 C3.66 3.33 4.32 3.66 5 4 C5.268125 4.763125 5.53625 5.52625 5.8125 6.3125 C7.2924509 9.66186255 8.97573323 10.98382215 12 13 C12.721875 13.165 13.44375 13.33 14.1875 13.5 C16 14 16 14 17.25 16.0625 C17.4975 16.701875 17.745 17.34125 18 18 C13.24160909 18 10.45198708 15.08724882 7 12 C3.68948138 8.29165082 0.95798135 4.95507595 0 0 Z " fill="#4A6AA0" transform="translate(12,63)"/>
<path d="M0 0 C0.721875 0.144375 1.44375 0.28875 2.1875 0.4375 C3.5796875 0.7159375 3.5796875 0.7159375 5 1 C5.86625 1.185625 6.7325 1.37125 7.625 1.5625 C10.08923328 2.09058121 10.08923328 2.09058121 13 2 C14.6875 3.5 14.6875 3.5 16 5 C15.67 5.66 15.34 6.32 15 7 C9.06 5.515 9.06 5.515 3 4 C2.67 4.66 2.34 5.32 2 6 C1.34 4.02 0.68 2.04 0 0 Z " fill="#2DC2FD" transform="translate(56,13)"/>
<path d="M0 0 C-0.33 5.28 -0.66 10.56 -1 16 C-1.33 16 -1.66 16 -2 16 C-2.33 14.02 -2.66 12.04 -3 10 C-3.99 9.67 -4.98 9.34 -6 9 C-5.7452486 7.68428397 -5.47065859 6.37239624 -5.1875 5.0625 C-5.03667969 4.33160156 -4.88585937 3.60070313 -4.73046875 2.84765625 C-4.48941406 2.23792969 -4.24835938 1.62820312 -4 1 C-1 0 -1 0 0 0 Z " fill="#B5B9C8" transform="translate(77,39)"/>
<path d="M0 0 C1.98 0 3.96 0 6 0 C6.1953125 6.0546875 6.1953125 6.0546875 6 8 C5.34 8.66 4.68 9.32 4 10 C1.2027092 7.93243723 0.97307727 6.85559629 0.3125 3.3125 C0.209375 2.219375 0.10625 1.12625 0 0 Z " fill="#CED1D7" transform="translate(19,39)"/>
<path d="M0 0 C1.32 0 2.64 0 4 0 C4.33 3.63 4.66 7.26 5 11 C3.68 11.33 2.36 11.66 1 12 C0.67 8.04 0.34 4.08 0 0 Z " fill="#CACFD8" transform="translate(13,39)"/>
<path d="M0 0 C0.99 0.495 0.99 0.495 2 1 C4.09821215 0.60061233 4.09821215 0.60061233 6 0 C5.7834375 0.7734375 5.7834375 0.7734375 5.5625 1.5625 C4.84190099 4.68509571 4.42733561 7.82550692 4 11 C2 10 2 10 0 8 C-0.36933645 5.24627091 -0.18336678 2.79634339 0 0 Z " fill="#217DD0" transform="translate(8,41)"/>
<path d="M0 0 C3.36720387 1.39332574 4.9859524 2.9789286 7 6 C6 8 6 8 4 9 C3.34 8.01 2.68 7.02 2 6 C-0.56282742 5.27034634 -0.56282742 5.27034634 -3 5 C-3.33 3.68 -3.66 2.36 -4 1 C-2.68 1.33 -1.36 1.66 0 2 C0 1.34 0 0.68 0 0 Z " fill="#3C9AEB" transform="translate(71,18)"/>
<path d="M0 0 C0.66 0.33 1.32 0.66 2 1 C2 1.99 2 2.98 2 4 C2.66 4.66 3.32 5.32 4 6 C2.35 6.33 0.7 6.66 -1 7 C-1.66 9.31 -2.32 11.62 -3 14 C-4.85776765 10.86501708 -5.20140476 8.62528568 -5 5 C-4.34 5 -3.68 5 -3 5 C-3 4.34 -3 3.68 -3 3 C-2.01 3 -1.02 3 0 3 C0 2.01 0 1.02 0 0 Z " fill="#1E92E8" transform="translate(30,32)"/>
<path d="M0 0 C0.66 0.33 1.32 0.66 2 1 C1.45730469 1.60328125 0.91460937 2.2065625 0.35546875 2.828125 C-0.35996094 3.62734375 -1.07539063 4.4265625 -1.8125 5.25 C-2.52019531 6.03890625 -3.22789063 6.8278125 -3.95703125 7.640625 C-5.74168935 9.7016833 -7.39759062 11.79605523 -9 14 C-9.99 13.67 -10.98 13.34 -12 13 C-10.75625426 11.39097942 -9.50473101 9.78796893 -8.25 8.1875 C-7.55390625 7.29417969 -6.8578125 6.40085937 -6.140625 5.48046875 C-4.22174036 3.25694367 -2.41900036 1.6399079 0 0 Z " fill="#CAF7FC" transform="translate(25,14)"/>
<path d="M0 0 C0 0.66 0 1.32 0 2 C-0.66 2 -1.32 2 -2 2 C-2 2.66 -2 3.32 -2 4 C-2.69867188 3.98839844 -3.39734375 3.97679687 -4.1171875 3.96484375 C-5.02726562 3.95582031 -5.93734375 3.94679688 -6.875 3.9375 C-7.77992187 3.92589844 -8.68484375 3.91429687 -9.6171875 3.90234375 C-12.0168585 3.83750743 -12.0168585 3.83750743 -14 5 C-13.67 3.68 -13.34 2.36 -13 1 C-8.60563789 0.14256349 -4.47427924 -0.08948558 0 0 Z " fill="#9CF1FE" transform="translate(55,8)"/>
<path d="M0 0 C0.66 0 1.32 0 2 0 C2.69965443 1.26418246 3.38434763 2.53665402 4.0625 3.8125 C4.63677734 4.87404297 4.63677734 4.87404297 5.22265625 5.95703125 C6 8 6 8 5 11 C2.5625 9.9375 2.5625 9.9375 0 8 C-0.875 4.375 -0.875 4.375 -1 1 C-0.67 0.67 -0.34 0.34 0 0 Z " fill="#90B7E8" transform="translate(79,24)"/>
<path d="M0 0 C0 0.99 0 1.98 0 3 C-4.62 3.66 -9.24 4.32 -14 5 C-13.67 4.01 -13.34 3.02 -13 2 C-8.56204759 0.5946484 -4.67869431 -0.29241839 0 0 Z " fill="#31BEF8" transform="translate(30,32)"/>
<path d="M0 0 C1.32 0.33 2.64 0.66 4 1 C4 1.99 4 2.98 4 4 C3.34 3.67 2.68 3.34 2 3 C1.67 4.65 1.34 6.3 1 8 C-0.98 8 -2.96 8 -5 8 C-3.625 6 -3.625 6 -2 4 C-1.34 4 -0.68 4 0 4 C0 2.68 0 1.36 0 0 Z " fill="#149DF3" transform="translate(54,19)"/>
<path d="M0 0 C0.66 0.33 1.32 0.66 2 1 C1.67515625 1.87011719 1.67515625 1.87011719 1.34375 2.7578125 C-0.28435049 7.32553887 -1.37861182 11.0780464 -1 16 C-1.99 15.67 -2.98 15.34 -4 15 C-3.36156521 9.6797101 -2.4097052 4.81941041 0 0 Z " fill="#3BD5FE" transform="translate(38,11)"/>
<path d="M0 0 C0 0.66 0 1.32 0 2 C-1.5390625 3.33203125 -1.5390625 3.33203125 -3.625 4.8125 C-7.21489011 7.41229586 -10.62340038 10.12989032 -14 13 C-12.66938508 10.12333727 -11.17712023 7.78863364 -9.125 5.375 C-8.63257813 4.78460937 -8.14015625 4.19421875 -7.6328125 3.5859375 C-5.33985734 1.3588088 -3.23964515 0 0 0 Z " fill="#85E5FC" transform="translate(34,10)"/>
<path d="M0 0 C1.32 0 2.64 0 4 0 C4.36630156 3.93774177 4.30233203 5.56539771 2 8.875 C1.34 9.57625 0.68 10.2775 0 11 C0 7.37 0 3.74 0 0 Z " fill="#1B57BA" transform="translate(82,42)"/>
<path d="M0 0 C1.65 0.33 3.3 0.66 5 1 C5 2.32 5 3.64 5 5 C2.69 5.33 0.38 5.66 -2 6 C-2 7.98 -2 9.96 -2 12 C-2.66 11.67 -3.32 11.34 -4 11 C-3.67 9.02 -3.34 7.04 -3 5 C-1.68 5 -0.36 5 1 5 C0.67 3.35 0.34 1.7 0 0 Z " fill="#508CD7" transform="translate(81,33)"/>
<path d="M0 0 C0.99 0.33 1.98 0.66 3 1 C3 1.66 3 2.32 3 3 C4.65 3 6.3 3 8 3 C8 3.66 8 4.32 8 5 C1.6 6.23076923 1.6 6.23076923 -1.4375 5.0625 C-1.953125 4.711875 -2.46875 4.36125 -3 4 C-2.34 3.34 -1.68 2.68 -1 2 C-0.67 1.34 -0.34 0.68 0 0 Z " fill="#3CA1ED" transform="translate(32,34)"/>
<path d="M0 0 C4.04161955 1.34484714 6.38678154 3.0505162 9.3125 6.125 C10.00988281 6.84945313 10.70726563 7.57390625 11.42578125 8.3203125 C11.94527344 8.87460937 12.46476562 9.42890625 13 10 C12.34 10.66 11.68 11.32 11 12 C10.54109375 11.46890625 10.0821875 10.9378125 9.609375 10.390625 C6.50506283 6.81675301 3.41818688 3.28145941 0 0 Z " fill="#B9DAFA" transform="translate(67,13)"/>
<path d="M0 0 C0.66 0 1.32 0 2 0 C1.125 5.75 1.125 5.75 0 8 C-0.66 8 -1.32 8 -2 8 C-2 8.66 -2 9.32 -2 10 C-2.66 10 -3.32 10 -4 10 C-2.99806563 6.20696275 -2.18975773 3.28463659 0 0 Z " fill="#B6EBFD" transform="translate(13,29)"/>
<path d="M0 0 C0.99 0 1.98 0 3 0 C4.52448631 2.9826906 5.93940067 5.818202 7 9 C3.64564078 7.61198929 1.88709697 6.11371 0 3 C0 2.01 0 1.02 0 0 Z " fill="#1549A8" transform="translate(19,68)"/>
<path d="M0 0 C2.34171739 2.34171739 2.391923 3.23060454 2.75 6.4375 C2.84796875 7.21996094 2.9459375 8.00242187 3.046875 8.80859375 C3 11 3 11 1 14 C-0.04976964 10.85069107 -0.10131595 8.61185544 -0.0625 5.3125 C-0.05347656 4.31863281 -0.04445313 3.32476562 -0.03515625 2.30078125 C-0.02355469 1.54152344 -0.01195312 0.78226563 0 0 Z " fill="#1158BF" transform="translate(12,43)"/>
<path d="M0 0 C0.33 1.32 0.66 2.64 1 4 C1.66 4 2.32 4 3 4 C3.96070434 6.88211302 4.10581883 8.69850044 4.0625 11.6875 C4.05347656 12.49574219 4.04445313 13.30398437 4.03515625 14.13671875 C4.02355469 14.75160156 4.01195312 15.36648437 4 16 C3.67 16 3.34 16 3 16 C2.87625 14.88625 2.7525 13.7725 2.625 12.625 C2.3534187 8.96896323 2.3534187 8.96896323 0 7 C-0.125 3.375 -0.125 3.375 0 0 Z " fill="#A7B9D0" transform="translate(17,39)"/>
<path d="M0 0 C2.08268593 -0.08126087 4.16628658 -0.13930839 6.25 -0.1875 C7.99023438 -0.23970703 7.99023438 -0.23970703 9.765625 -0.29296875 C13.22268407 0.02017066 14.51565563 0.65709108 17 3 C11.30948637 2.4618629 5.65134116 1.8599867 0 1 C0 0.67 0 0.34 0 0 Z " fill="#1B8AED" transform="translate(37,29)"/>
<path d="M0 0 C1.32 0 2.64 0 4 0 C3.67 2.64 3.34 5.28 3 8 C2.67 7.34 2.34 6.68 2 6 C1.34 6 0.68 6 0 6 C0 4.02 0 2.04 0 0 Z " fill="#BEBFC9" transform="translate(29,40)"/>
<path d="M0 0 C1.8125 1.25 1.8125 1.25 2.8125 3.25 C-0.1575 3.25 -3.1275 3.25 -6.1875 3.25 C-6.1875 2.59 -6.1875 1.93 -6.1875 1.25 C-2.76721014 -0.94875776 -2.76721014 -0.94875776 0 0 Z " fill="#1783EA" transform="translate(67.1875,23.75)"/>
<path d="M0 0 C2.8086289 2.8086289 2.72711179 5.11134294 3 9 C2.34 9.99 1.68 10.98 1 12 C0.03929566 9.11788698 -0.10581883 7.30149956 -0.0625 4.3125 C-0.05347656 3.50425781 -0.04445312 2.69601563 -0.03515625 1.86328125 C-0.02355469 1.24839844 -0.01195312 0.63351563 0 0 Z " fill="#1A61C6" transform="translate(34,40)"/>
<path d="M0 0 C0.33 0.99 0.66 1.98 1 3 C1.99 3.33 2.98 3.66 4 4 C2.68 4 1.36 4 0 4 C-0.33 4.99 -0.66 5.98 -1 7 C-1.99 7.33 -2.98 7.66 -4 8 C-4 6.68 -4 5.36 -4 4 C-3.34 4 -2.68 4 -2 4 C-2 3.34 -2 2.68 -2 2 C-1.34 2 -0.68 2 0 2 C0 1.34 0 0.68 0 0 Z " fill="#51BCF2" transform="translate(13,35)"/>
<path d="M0 0 C4.875 1.75 4.875 1.75 6 4 C5.67 4.66 5.34 5.32 5 6 C3.02 5.34 1.04 4.68 -1 4 C-0.67 2.68 -0.34 1.36 0 0 Z " fill="#4BB5F6" transform="translate(66,14)"/>
<path d="M0 0 C0.66 0 1.32 0 2 0 C2 1.98 2 3.96 2 6 C3.65 6 5.3 6 7 6 C4.08291076 7.98362069 2.87619096 7.9876191 -0.75 7.625 C-1.8225 7.41875 -2.895 7.2125 -4 7 C-3.34 6.5875 -2.68 6.175 -2 5.75 C-1.34 5.1725 -0.68 4.595 0 4 C0 2.68 0 1.36 0 0 Z " fill="#418AE1" transform="translate(60,32)"/>
<path d="M0 0 C0.99 0.33 1.98 0.66 3 1 C0.525 6.94 0.525 6.94 -2 13 C-3.03103689 8.87585243 -2.94701684 8.0158858 -1.5625 4.25 C-1.27503906 3.45078125 -0.98757812 2.6515625 -0.69140625 1.828125 C-0.46324219 1.22484375 -0.23507813 0.6215625 0 0 Z " fill="#64E4FE" transform="translate(39,12)"/>
<path d="M0 0 C1.98 0 3.96 0 6 0 C5.01 0.66 4.02 1.32 3 2 C2.6278958 3.32303717 2.29369827 4.65737935 2 6 C1.34 6.66 0.68 7.32 0 8 C0 5.36 0 2.72 0 0 Z " fill="#D2D6E1" transform="translate(55,39)"/>
<path d="M0 0 C1.32 0 2.64 0 4 0 C4 1.98 4 3.96 4 6 C3.01 6.33 2.02 6.66 1 7 C0.67 4.69 0.34 2.38 0 0 Z " fill="#BFC0CB" transform="translate(63,40)"/>
<path d="M0 0 C2.475 0.495 2.475 0.495 5 1 C5.33 1.99 5.66 2.98 6 4 C4.35 4 2.7 4 1 4 C0.67 2.68 0.34 1.36 0 0 Z " fill="#2D8CEA" transform="translate(69,23)"/>
<path d="M0 0 C6.15234375 0.5859375 6.15234375 0.5859375 8 1 C8.33 1.66 8.66 2.32 9 3 C4.94568308 4.15837626 2.78187881 3.83691257 -1 2 C-0.67 1.34 -0.34 0.68 0 0 Z " fill="#85DEFD" transform="translate(58,10)"/>
<path d="M0 0 C1.37562854 1.28965176 2.70766393 2.62689293 4 4 C4 4.66 4 5.32 4 6 C1.5625 5.1875 1.5625 5.1875 -1 4 C-1.33 3.01 -1.66 2.02 -2 1 C-1.34 0.67 -0.68 0.34 0 0 Z " fill="#2E5DA6" transform="translate(26,76)"/>
<path d="M0 0 C0.66 0 1.32 0 2 0 C2.33 1.98 2.66 3.96 3 6 C2.01 6.495 2.01 6.495 1 7 C1 6.34 1 5.68 1 5 C0.34 5 -0.32 5 -1 5 C-0.67 3.35 -0.34 1.7 0 0 Z " fill="#285BB9" transform="translate(61,40)"/>
<path d="M0 0 C0.99 0.495 0.99 0.495 2 1 C4.09821215 0.60061233 4.09821215 0.60061233 6 0 C5.67 1.32 5.34 2.64 5 4 C3.35 4.33 1.7 4.66 0 5 C0 3.35 0 1.7 0 0 Z " fill="#3A92D7" transform="translate(8,41)"/>
<path d="M0 0 C0.33 0.99 0.66 1.98 1 3 C1.66 3.33 2.32 3.66 3 4 C2.34 5.32 1.68 6.64 1 8 C0.67 7.01 0.34 6.02 0 5 C-2.50447516 3.78130071 -2.50447516 3.78130071 -5 3 C-5 2.67 -5 2.34 -5 2 C-3.35 2 -1.7 2 0 2 C0 1.34 0 0.68 0 0 Z " fill="#3D86E1" transform="translate(78,29)"/>
<path d="M0 0 C1.98 0.99 3.96 1.98 6 3 C4.68 3.33 3.36 3.66 2 4 C2 4.66 2 5.32 2 6 C1.01 6 0.02 6 -1 6 C-0.67 4.02 -0.34 2.04 0 0 Z " fill="#3476D3" transform="translate(76,25)"/>
<path d="M0 0 C1.32 0 2.64 0 4 0 C4 1.98 4 3.96 4 6 C3.01 5.67 2.02 5.34 1 5 C0.67 3.35 0.34 1.7 0 0 Z " fill="#C2C4CC" transform="translate(35,40)"/>
<path d="M0 0 C-6.75 3 -6.75 3 -9 3 C-8.67 2.01 -8.34 1.02 -8 0 C-4.71303767 -0.79953138 -3.28976808 -1.09658936 0 0 Z " fill="#40C7FB" transform="translate(25,34)"/>
<path d="M0 0 C0.33 0 0.66 0 1 0 C1 3.3 1 6.6 1 10 C0.67 10 0.34 10 0 10 C0 6.7 0 3.4 0 0 Z " fill="#2F8CD6" transform="translate(6,42)"/>
<path d="M0 0 C1.98 0.99 1.98 0.99 4 2 C4 2.99 4 3.98 4 5 C2.68 3.35 1.36 1.7 0 0 Z " fill="#AEE8FB" transform="translate(74,16)"/>
<path d="M0 0 C2.31 0 4.62 0 7 0 C7 0.33 7 0.66 7 1 C4.69 1 2.38 1 0 1 C0 0.67 0 0.34 0 0 Z " fill="#A5F1FE" transform="translate(50,6)"/>
<path d="M0 0 C2.31 0 4.62 0 7 0 C7 0.33 7 0.66 7 1 C4.69 1 2.38 1 0 1 C0 0.67 0 0.34 0 0 Z " fill="#A4EFFE" transform="translate(39,6)"/>
<path d="M0 0 C1.98 0 3.96 0 6 0 C6 0.33 6 0.66 6 1 C4.02 1 2.04 1 0 1 C0 0.67 0 0.34 0 0 Z " fill="#1354A0" transform="translate(45,88)"/>
<path d="M0 0 C1.65 0 3.3 0 5 0 C5 0.33 5 0.66 5 1 C3.35 1 1.7 1 0 1 C0 0.67 0 0.34 0 0 Z " fill="#2267BE" transform="translate(53,87)"/>
<path d="M0 0 C1.65 0 3.3 0 5 0 C5 0.33 5 0.66 5 1 C3.35 1 1.7 1 0 1 C0 0.67 0 0.34 0 0 Z " fill="#165DB1" transform="translate(38,87)"/>
<path d="M0 0 C0 3 0 3 0 3 Z " fill="#325AAB" transform="translate(79,72)"/>
<path d="M0 0 C1 4 1 4 1 4 Z " fill="#3E78CF" transform="translate(7,53)"/>
<path d="M0 0 C1 4 1 4 1 4 Z " fill="#75CBF9" transform="translate(7,37)"/>
<path d="M0 0 C1 4 1 4 1 4 Z " fill="#4284E2" transform="translate(87,34)"/>
<path d="M0 0 C1 4 1 4 1 4 Z " fill="#BDD9F0" transform="translate(11,27)"/>
<path d="M0 0 C0 3 0 3 0 3 Z " fill="#DEFCFE" transform="translate(16,20)"/>
<path d="M0 0 C3 1 3 1 3 1 Z " fill="#1462C2" transform="translate(58,86)"/>
<path d="" fill="#4B7EA8" transform="translate(0,0)"/>
<path d="" fill="#2D7FBC" transform="translate(0,0)"/>
<path d="" fill="#C1E8FD" transform="translate(0,0)"/>
<path d="" fill="#8AA7D3" transform="translate(0,0)"/>
<path d="M0 0 C3 1 3 1 3 1 Z " fill="#52D8FE" transform="translate(58,7)"/>
<path d="M0 0 C3 1 3 1 3 1 Z " fill="#53DDFD" transform="translate(35,7)"/>
<path d="M0 0 C2 1 2 1 2 1 Z " fill="#1B54A1" transform="translate(61,85)"/>
<path d="M0 0 C2 1 2 1 2 1 Z " fill="#103594" transform="translate(33,85)"/>
<path d="M0 0 C2 1 2 1 2 1 Z " fill="#246EB9" transform="translate(64,84)"/>
<path d="M0 0 C2 1 2 1 2 1 Z " fill="#335BBF" transform="translate(30,84)"/>
<path d="M0 0 C2 1 2 1 2 1 Z " fill="#497BAE" transform="translate(66,83)"/>
<path d="M0 0 C2 1 2 1 2 1 Z " fill="#3B61AF" transform="translate(28,83)"/>
<path d="M0 0 C2 1 2 1 2 1 Z " fill="#37609A" transform="translate(69,81)"/>
<path d="M0 0 C2 1 2 1 2 1 Z " fill="#29498E" transform="translate(25,81)"/>
<path d="M0 0 C2 1 2 1 2 1 Z " fill="#5A8DC3" transform="translate(73,78)"/>
<path d="" fill="#4361A3" transform="translate(0,0)"/>
<path d="" fill="#4769A7" transform="translate(0,0)"/>
<path d="" fill="#345295" transform="translate(0,0)"/>
<path d="" fill="#465DAE" transform="translate(0,0)"/>
<path d="" fill="#3B568C" transform="translate(0,0)"/>
<path d="" fill="#496CA3" transform="translate(0,0)"/>
<path d="" fill="#78A7D9" transform="translate(0,0)"/>
<path d="" fill="#C3FCFE" transform="translate(0,0)"/>
<path d="" fill="#E1FEF8" transform="translate(0,0)"/>
<path d="M0 0 C2 1 2 1 2 1 Z " fill="#DBFCFF" transform="translate(21,15)"/>
<path d="M0 0 C2 1 2 1 2 1 Z " fill="#C5E8FD" transform="translate(69,12)"/>
<path d="M0 0 C2 1 2 1 2 1 Z " fill="#C1F7FE" transform="translate(25,12)"/>
<path d="M0 0 C2 1 2 1 2 1 Z " fill="#92D1FD" transform="translate(67,11)"/>
<path d="M0 0 C2 1 2 1 2 1 Z " fill="#77CFE0" transform="translate(30,9)"/>
<path d="M0 0 C2 1 2 1 2 1 Z " fill="#5AC5FC" transform="translate(61,8)"/>
<path d="M0 0 C2 1 2 1 2 1 Z " fill="#4FD0FD" transform="translate(33,8)"/>
<path d="" fill="#4776A4" transform="translate(0,0)"/>
<path d="" fill="#4863A1" transform="translate(0,0)"/>
<path d="" fill="#4B7C9F" transform="translate(0,0)"/>
<path d="" fill="#385984" transform="translate(0,0)"/>
<path d="" fill="#3C7F9C" transform="translate(0,0)"/>
<path d="" fill="#3B61A2" transform="translate(0,0)"/>
<path d="" fill="#4B699B" transform="translate(0,0)"/>
<path d="" fill="#506D9D" transform="translate(0,0)"/>
<path d="" fill="#455CA9" transform="translate(0,0)"/>
<path d="" fill="#4F719E" transform="translate(0,0)"/>
<path d="" fill="#3B59A7" transform="translate(0,0)"/>
<path d="" fill="#51719D" transform="translate(0,0)"/>
<path d="" fill="#425EA4" transform="translate(0,0)"/>
<path d="" fill="#3F5F8E" transform="translate(0,0)"/>
<path d="" fill="#526791" transform="translate(0,0)"/>
<path d="" fill="#3866A0" transform="translate(0,0)"/>
<path d="" fill="#53789A" transform="translate(0,0)"/>
<path d="" fill="#4868AC" transform="translate(0,0)"/>
<path d="" fill="#4E689C" transform="translate(0,0)"/>
<path d="" fill="#4A6AA5" transform="translate(0,0)"/>
<path d="" fill="#556990" transform="translate(0,0)"/>
<path d="" fill="#4B6093" transform="translate(0,0)"/>
<path d="" fill="#505F8C" transform="translate(0,0)"/>
<path d="" fill="#9CC0EE" transform="translate(0,0)"/>
<path d="" fill="#CBFBFE" transform="translate(0,0)"/>
<path d="" fill="#B6CFF0" transform="translate(0,0)"/>
<path d="" fill="#D8F9F9" transform="translate(0,0)"/>
<path d="" fill="#ACD0FA" transform="translate(0,0)"/>
<path d="" fill="#BAC9FA" transform="translate(0,0)"/>
<path d="" fill="#D5FFFE" transform="translate(0,0)"/>
<path d="" fill="#CCEDFE" transform="translate(0,0)"/>
<path d="" fill="#D8EAFF" transform="translate(0,0)"/>
<path d="" fill="#DCFEFF" transform="translate(0,0)"/>
<path d="" fill="#D4FDFE" transform="translate(0,0)"/>
<path d="" fill="#D1FCFE" transform="translate(0,0)"/>
<path d="" fill="#D2FDFE" transform="translate(0,0)"/>
<path d="" fill="#D3E5FF" transform="translate(0,0)"/>
<path d="" fill="#C6F0FF" transform="translate(0,0)"/>
<path d="" fill="#F7FFFF" transform="translate(0,0)"/>
<path d="" fill="#D3E5FF" transform="translate(0,0)"/>
<path d="" fill="#F4FFFE" transform="translate(0,0)"/>
<path d="" fill="#FAFFFD" transform="translate(0,0)"/>
<path d="" fill="#A3C9FC" transform="translate(0,0)"/>
<path d="" fill="#7BE9FD" transform="translate(0,0)"/>
<path d="" fill="#5CD1FD" transform="translate(0,0)"/>
</svg>
